<svg xmlns="http://www.w3.org/2000/svg" xmlns:xlink="http://www.w3.org/1999/xlink" viewBox="0 0 356.37 196.4"><defs><style>.cls-1{fill:none;}.cls-2{clip-path:url(#clip-path);}.cls-3{fill:url(#linear-gradient);}.cls-4{clip-path:url(#clip-path-2);}.cls-5{fill:url(#linear-gradient-2);}.cls-6{clip-path:url(#clip-path-7);}.cls-7{fill:url(#linear-gradient-7);}.cls-8{clip-path:url(#clip-path-8);}.cls-9{fill:url(#linear-gradient-8);}.cls-10{clip-path:url(#clip-path-13);}.cls-11{fill:url(#linear-gradient-13);}.cls-12{clip-path:url(#clip-path-14);}.cls-13{fill:url(#linear-gradient-14);}.cls-14{clip-path:url(#clip-path-19);}.cls-15{fill:url(#linear-gradient-19);}.cls-16{clip-path:url(#clip-path-20);}.cls-17{fill:url(#linear-gradient-20);}.cls-18{clip-path:url(#clip-path-25);}.cls-19{fill:url(#linear-gradient-25);}.cls-20{clip-path:url(#clip-path-26);}.cls-21{fill:url(#linear-gradient-26);}.cls-22{clip-path:url(#clip-path-31);}.cls-23{fill:url(#linear-gradient-31);}.cls-24{clip-path:url(#clip-path-32);}.cls-25{fill:url(#linear-gradient-32);}.cls-26{clip-path:url(#clip-path-37);}.cls-27{fill:url(#linear-gradient-37);}.cls-28{clip-path:url(#clip-path-38);}.cls-29{fill:url(#linear-gradient-38);}.cls-30{clip-path:url(#clip-path-43);}.cls-31{fill:url(#linear-gradient-43);}.cls-32{clip-path:url(#clip-path-44);}.cls-33{fill:url(#linear-gradient-44);}.cls-34{clip-path:url(#clip-path-49);}.cls-35{fill:url(#linear-gradient-49);}.cls-36{clip-path:url(#clip-path-50);}.cls-37{fill:url(#linear-gradient-50);}.cls-38{clip-path:url(#clip-path-55);}.cls-39{fill:url(#linear-gradient-55);}.cls-40{clip-path:url(#clip-path-56);}.cls-41{fill:url(#linear-gradient-56);}.cls-42{clip-path:url(#clip-path-61);}.cls-43{fill:url(#linear-gradient-61);}.cls-44{clip-path:url(#clip-path-62);}.cls-45{fill:url(#linear-gradient-62);}.cls-46{clip-path:url(#clip-path-67);}.cls-47{fill:url(#linear-gradient-67);}.cls-48{clip-path:url(#clip-path-68);}.cls-49{fill:url(#linear-gradient-68);}</style><clipPath id="clip-path"><path class="cls-1" d="M27,25.59A12.79,12.79,0,1,0,39.77,12.79,12.79,12.79,0,0,0,27,25.59"/></clipPath><linearGradient id="linear-gradient" x1="-5303.07" y1="2177.06" x2="-5302.07" y2="2177.06" gradientTransform="translate(3698415.99 -1518364.57) scale(697.45)" gradientUnits="userSpaceOnUse"><stop offset="0" stop-color="#4e9bce"/><stop offset="1" stop-color="#5bc0a0"/></linearGradient><clipPath id="clip-path-2"><path class="cls-1" d="M23.93,59.06v32H55.61v-32a15.84,15.84,0,0,0-31.68,0"/></clipPath><linearGradient id="linear-gradient-2" x1="-5303.07" y1="2177.06" x2="-5302.07" y2="2177.06" gradientTransform="translate(3698441.23 -1518333.1) scale(697.45)" xlink:href="#linear-gradient"/><clipPath id="clip-path-7"><path class="cls-1" d="M82.34,25.59a12.79,12.79,0,1,0,12.8-12.79,12.8,12.8,0,0,0-12.8,12.79"/></clipPath><linearGradient id="linear-gradient-7" x1="-5303.07" y1="2177.06" x2="-5302.07" y2="2177.06" gradientTransform="translate(3698430.39 -1518368.98) scale(697.45)" xlink:href="#linear-gradient"/><clipPath id="clip-path-8"><path class="cls-1" d="M79.3,59.06v32H111v-32a15.84,15.84,0,0,0-31.68,0"/></clipPath><linearGradient id="linear-gradient-8" x1="-5303.07" y1="2177.06" x2="-5302.07" y2="2177.06" gradientTransform="translate(3698459.78 -1518327.42) scale(697.45)" xlink:href="#linear-gradient"/><clipPath id="clip-path-13"><path class="cls-1" d="M137.71,25.59A12.79,12.79,0,1,0,150.5,12.79a12.79,12.79,0,0,0-12.79,12.79"/></clipPath><linearGradient id="linear-gradient-13" x1="-5303.07" y1="2177.06" x2="-5302.07" y2="2177.06" gradientTransform="translate(3698448.42 -1518364.57) scale(697.45)" xlink:href="#linear-gradient"/><clipPath id="clip-path-14"><path class="cls-1" d="M134.66,59.06v32h31.68v-32a15.84,15.84,0,0,0-31.68,0"/></clipPath><linearGradient id="linear-gradient-14" x1="-5303.07" y1="2177.06" x2="-5302.07" y2="2177.06" gradientTransform="translate(3698474.83 -1518330.26) scale(697.45)" xlink:href="#linear-gradient"/><clipPath id="clip-path-19"><path class="cls-1" d="M193.08,25.59a12.79,12.79,0,1,0,12.79-12.79,12.8,12.8,0,0,0-12.79,12.79"/></clipPath><linearGradient id="linear-gradient-19" x1="-5303.07" y1="2177.06" x2="-5302.07" y2="2177.06" gradientTransform="translate(3698462.83 -1518368.98) scale(697.45)" xlink:href="#linear-gradient"/><clipPath id="clip-path-20"><path class="cls-1" d="M190,59.06v32h31.68v-32a15.84,15.84,0,1,0-31.68,0"/></clipPath><linearGradient id="linear-gradient-20" x1="-5303.07" y1="2177.06" x2="-5302.07" y2="2177.06" gradientTransform="translate(3698492.21 -1518327.42) scale(697.45)" xlink:href="#linear-gradient"/><clipPath id="clip-path-25"><path class="cls-1" d="M27,115.08a12.79,12.79,0,1,0,12.79-12.79A12.79,12.79,0,0,0,27,115.08"/></clipPath><linearGradient id="linear-gradient-25" x1="-5303.07" y1="2177.06" x2="-5302.07" y2="2177.06" gradientTransform="matrix(697.45, 0, 0, 697.45, 3698475.65, -1518283.9)" xlink:href="#linear-gradient"/><clipPath id="clip-path-26"><path class="cls-1" d="M23.93,148.54v32H55.61v-32a15.84,15.84,0,1,0-31.68,0"/></clipPath><linearGradient id="linear-gradient-26" x1="-5303.07" y1="2177.06" x2="-5302.07" y2="2177.06" gradientTransform="translate(3698508.01 -1518235.1) scale(697.45)" xlink:href="#linear-gradient"/><clipPath id="clip-path-31"><path class="cls-1" d="M82.34,115.08a12.79,12.79,0,1,0,12.8-12.79,12.8,12.8,0,0,0-12.8,12.79"/></clipPath><linearGradient id="linear-gradient-31" x1="-5303.07" y1="2177.06" x2="-5302.07" y2="2177.06" gradientTransform="translate(3698495.48 -1518275.08) scale(697.45)" xlink:href="#linear-gradient"/><clipPath id="clip-path-32"><path class="cls-1" d="M79.3,148.54v32H111v-32a15.84,15.84,0,0,0-31.68,0"/></clipPath><linearGradient id="linear-gradient-32" x1="-5303.07" y1="2177.06" x2="-5302.07" y2="2177.06" gradientTransform="translate(3698523.06 -1518237.94) scale(697.45)" xlink:href="#linear-gradient"/><clipPath id="clip-path-37"><path class="cls-1" d="M137.71,115.08a12.79,12.79,0,1,0,12.79-12.79,12.79,12.79,0,0,0-12.79,12.79"/></clipPath><linearGradient id="linear-gradient-37" x1="-5303.07" y1="2177.06" x2="-5302.07" y2="2177.06" gradientTransform="translate(3698511.7 -1518275.08) scale(697.45)" xlink:href="#linear-gradient"/><clipPath id="clip-path-38"><path class="cls-1" d="M134.66,148.54v32h31.68v-32a15.84,15.84,0,0,0-31.68,0"/></clipPath><linearGradient id="linear-gradient-38" x1="-5303.07" y1="2177.06" x2="-5302.07" y2="2177.06" gradientTransform="translate(3698539.27 -1518237.94) scale(697.45)" xlink:href="#linear-gradient"/><clipPath id="clip-path-43"><path class="cls-1" d="M193.08,115.08a12.79,12.79,0,1,0,12.79-12.79,12.8,12.8,0,0,0-12.79,12.79"/></clipPath><linearGradient id="linear-gradient-43" x1="-5303.07" y1="2177.06" x2="-5302.07" y2="2177.06" gradientTransform="translate(3698527.92 -1518275.08) scale(697.45)" xlink:href="#linear-gradient"/><clipPath id="clip-path-44"><path class="cls-1" d="M190,148.54v32h31.68v-32a15.84,15.84,0,1,0-31.68,0"/></clipPath><linearGradient id="linear-gradient-44" x1="-5303.07" y1="2177.06" x2="-5302.07" y2="2177.06" gradientTransform="translate(3698555.49 -1518237.94) scale(697.45)" xlink:href="#linear-gradient"/><clipPath id="clip-path-49"><path class="cls-1" d="M248.45,25.59a12.79,12.79,0,1,0,12.79-12.79,12.79,12.79,0,0,0-12.79,12.79"/></clipPath><linearGradient id="linear-gradient-49" x1="-5303.07" y1="2177.06" x2="-5302.07" y2="2177.06" gradientTransform="matrix(697.45, 0, 0, 697.45, 3698475.42, -1518377.8)" xlink:href="#linear-gradient"/><clipPath id="clip-path-50"><path class="cls-1" d="M245.4,59.06v32h31.68v-32a15.84,15.84,0,1,0-31.68,0"/></clipPath><linearGradient id="linear-gradient-50" x1="-5303.07" y1="2177.06" x2="-5302.07" y2="2177.06" gradientTransform="translate(3698508.43 -1518327.42) scale(697.45)" xlink:href="#linear-gradient"/><clipPath id="clip-path-55"><path class="cls-1" d="M248.45,115.08a12.79,12.79,0,1,0,12.79-12.79,12.79,12.79,0,0,0-12.79,12.79"/></clipPath><linearGradient id="linear-gradient-55" x1="-5303.07" y1="2177.06" x2="-5302.07" y2="2177.06" gradientTransform="matrix(697.45, 0, 0, 697.45, 3698540.51, -1518283.9)" xlink:href="#linear-gradient"/><clipPath id="clip-path-56"><path class="cls-1" d="M245.4,148.54v32h31.68v-32a15.84,15.84,0,1,0-31.68,0"/></clipPath><linearGradient id="linear-gradient-56" x1="-5303.07" y1="2177.06" x2="-5302.07" y2="2177.06" gradientTransform="translate(3698570.54 -1518240.77) scale(697.45)" xlink:href="#linear-gradient"/><clipPath id="clip-path-61"><path class="cls-1" d="M303.81,25.59a12.79,12.79,0,1,0,12.79-12.79,12.79,12.79,0,0,0-12.79,12.79"/></clipPath><linearGradient id="linear-gradient-61" x1="-5303.07" y1="2177.06" x2="-5302.07" y2="2177.06" gradientTransform="translate(3698495.26 -1518368.98) scale(697.45)" xlink:href="#linear-gradient"/><clipPath id="clip-path-62"><path class="cls-1" d="M300.77,59.06v32h31.68v-32a15.84,15.84,0,1,0-31.68,0"/></clipPath><linearGradient id="linear-gradient-62" x1="-5303.07" y1="2177.06" x2="-5302.07" y2="2177.06" gradientTransform="translate(3698526.98 -1518321.75) scale(697.45)" xlink:href="#linear-gradient"/><clipPath id="clip-path-67"><path class="cls-1" d="M300.77,148.54v32h22.17V134a15.83,15.83,0,0,0-22.17,14.51"/></clipPath><linearGradient id="linear-gradient-67" x1="-5303.07" y1="2177.06" x2="-5302.07" y2="2177.06" gradientTransform="translate(3698586.53 -1518237.94) scale(697.45)" xlink:href="#linear-gradient"/><clipPath id="clip-path-68"><path class="cls-1" d="M303.81,115.08a12.78,12.78,0,0,0,19.13,11.11V104a12.78,12.78,0,0,0-19.13,11.1"/></clipPath><linearGradient id="linear-gradient-68" x1="-5303.07" y1="2177.06" x2="-5302.07" y2="2177.06" gradientTransform="translate(3698559.67 -1518274.44) scale(697.45)" xlink:href="#linear-gradient"/></defs><title>Asset 2</title><g id="Layer_2" data-name="Layer 2"><g id="Layer_1-2" data-name="Layer 1"><g class="cls-2"><rect class="cls-3" x="21.67" y="7.5" width="36.19" height="36.19" transform="translate(-6.45 35.61) rotate(-45)"/></g><g class="cls-4"><rect class="cls-5" x="11.65" y="39.03" width="56.24" height="56.24" transform="translate(-35.83 47.79) rotate(-45)"/></g><g class="cls-2"><rect class="cls-3" x="21.67" y="7.5" width="36.19" height="36.19" transform="translate(-6.45 35.61) rotate(-45)"/></g><g class="cls-4"><rect class="cls-5" x="11.65" y="39.03" width="56.24" height="56.24" transform="translate(-35.83 47.79) rotate(-45)"/></g><g class="cls-2"><rect class="cls-3" x="21.67" y="7.5" width="36.19" height="36.19" transform="translate(-6.45 35.61) rotate(-45)"/></g><g class="cls-4"><rect class="cls-5" x="11.65" y="39.03" width="56.24" height="56.24" transform="translate(-35.83 47.79) rotate(-45)"/></g><g class="cls-6"><rect class="cls-7" x="77.04" y="7.49" width="36.19" height="36.19" transform="translate(9.77 74.76) rotate(-45)"/></g><g class="cls-8"><rect class="cls-9" x="67.02" y="39.02" width="56.24" height="56.24" transform="translate(-19.61 86.94) rotate(-45)"/></g><g class="cls-6"><rect class="cls-7" x="77.04" y="7.49" width="36.19" height="36.19" transform="translate(9.77 74.76) rotate(-45)"/></g><g class="cls-8"><rect class="cls-9" x="67.02" y="39.02" width="56.24" height="56.24" transform="translate(-19.61 86.94) rotate(-45)"/></g><g class="cls-6"><rect class="cls-7" x="77.04" y="7.49" width="36.19" height="36.19" transform="translate(9.77 74.76) rotate(-45)"/></g><g class="cls-8"><rect class="cls-9" x="67.02" y="39.02" width="56.24" height="56.24" transform="translate(-19.61 86.94) rotate(-45)"/></g><g class="cls-10"><rect class="cls-11" x="132.41" y="7.5" width="36.19" height="36.19" transform="translate(25.99 113.92) rotate(-45)"/></g><g class="cls-12"><rect class="cls-13" x="122.38" y="39.02" width="56.24" height="56.24" transform="translate(-3.4 126.09) rotate(-45)"/></g><g class="cls-10"><rect class="cls-11" x="132.41" y="7.5" width="36.19" height="36.19" transform="translate(25.99 113.92) rotate(-45)"/></g><g class="cls-12"><rect class="cls-13" x="122.38" y="39.02" width="56.24" height="56.24" transform="translate(-3.4 126.09) rotate(-45)"/></g><g class="cls-10"><rect class="cls-11" x="132.41" y="7.5" width="36.19" height="36.19" transform="translate(25.99 113.92) rotate(-45)"/></g><g class="cls-12"><rect class="cls-13" x="122.38" y="39.02" width="56.24" height="56.24" transform="translate(-3.4 126.09) rotate(-45)"/></g><g class="cls-14"><rect class="cls-15" x="187.78" y="7.5" width="36.19" height="36.19" transform="translate(42.2 153.07) rotate(-45)"/></g><g class="cls-16"><rect class="cls-17" x="177.75" y="39.03" width="56.24" height="56.24" transform="translate(12.82 165.24) rotate(-45)"/></g><g class="cls-14"><rect class="cls-15" x="187.78" y="7.5" width="36.19" height="36.19" transform="translate(42.2 153.07) rotate(-45)"/></g><g class="cls-16"><rect class="cls-17" x="177.75" y="39.03" width="56.24" height="56.24" transform="translate(12.82 165.24) rotate(-45)"/></g><g class="cls-14"><rect class="cls-15" x="187.78" y="7.5" width="36.19" height="36.19" transform="translate(42.2 153.07) rotate(-45)"/></g><g class="cls-16"><rect class="cls-17" x="177.75" y="39.03" width="56.24" height="56.24" transform="translate(12.82 165.24) rotate(-45)"/></g><g class="cls-18"><rect class="cls-19" x="21.67" y="96.98" width="36.19" height="36.19" transform="translate(-69.72 61.83) rotate(-45)"/></g><g class="cls-20"><rect class="cls-21" x="11.65" y="128.51" width="56.24" height="56.24" transform="translate(-99.11 74) rotate(-45)"/></g><g class="cls-18"><rect class="cls-19" x="21.67" y="96.98" width="36.19" height="36.19" transform="translate(-69.72 61.83) rotate(-45)"/></g><g class="cls-20"><rect class="cls-21" x="11.65" y="128.51" width="56.24" height="56.24" transform="translate(-99.11 74) rotate(-45)"/></g><g class="cls-18"><rect class="cls-19" x="21.67" y="96.98" width="36.19" height="36.19" transform="translate(-69.72 61.83) rotate(-45)"/></g><g class="cls-20"><rect class="cls-21" x="11.65" y="128.51" width="56.24" height="56.24" transform="translate(-99.11 74) rotate(-45)"/></g><g class="cls-22"><rect class="cls-23" x="77.04" y="96.98" width="36.19" height="36.19" transform="translate(-53.51 100.98) rotate(-45)"/></g><g class="cls-24"><rect class="cls-25" x="67.02" y="128.51" width="56.24" height="56.24" transform="translate(-82.89 113.15) rotate(-45)"/></g><g class="cls-22"><rect class="cls-23" x="77.04" y="96.98" width="36.19" height="36.19" transform="translate(-53.51 100.98) rotate(-45)"/></g><g class="cls-24"><rect class="cls-25" x="67.02" y="128.51" width="56.24" height="56.24" transform="translate(-82.89 113.15) rotate(-45)"/></g><g class="cls-22"><rect class="cls-23" x="77.04" y="96.98" width="36.19" height="36.19" transform="translate(-53.51 100.98) rotate(-45)"/></g><g class="cls-24"><rect class="cls-25" x="67.02" y="128.51" width="56.24" height="56.24" transform="translate(-82.89 113.15) rotate(-45)"/></g><g class="cls-26"><rect class="cls-27" x="132.41" y="96.98" width="36.19" height="36.19" transform="translate(-37.29 140.13) rotate(-45)"/></g><g class="cls-28"><rect class="cls-29" x="122.38" y="128.51" width="56.24" height="56.24" transform="translate(-66.68 152.3) rotate(-45)"/></g><g class="cls-26"><rect class="cls-27" x="132.41" y="96.98" width="36.19" height="36.19" transform="translate(-37.29 140.13) rotate(-45)"/></g><g class="cls-28"><rect class="cls-29" x="122.38" y="128.51" width="56.24" height="56.24" transform="translate(-66.68 152.3) rotate(-45)"/></g><g class="cls-26"><rect class="cls-27" x="132.41" y="96.98" width="36.19" height="36.19" transform="translate(-37.29 140.13) rotate(-45)"/></g><g class="cls-28"><rect class="cls-29" x="122.38" y="128.51" width="56.24" height="56.24" transform="translate(-66.68 152.3) rotate(-45)"/></g><g class="cls-30"><rect class="cls-31" x="187.78" y="96.98" width="36.19" height="36.19" transform="translate(-21.07 179.28) rotate(-45)"/></g><g class="cls-32"><rect class="cls-33" x="177.75" y="128.51" width="56.24" height="56.24" transform="translate(-50.46 191.45) rotate(-45)"/></g><g class="cls-30"><rect class="cls-31" x="187.78" y="96.98" width="36.19" height="36.19" transform="translate(-21.07 179.28) rotate(-45)"/></g><g class="cls-32"><rect class="cls-33" x="177.75" y="128.51" width="56.24" height="56.24" transform="translate(-50.46 191.45) rotate(-45)"/></g><g class="cls-30"><rect class="cls-31" x="187.78" y="96.98" width="36.19" height="36.19" transform="translate(-21.07 179.28) rotate(-45)"/></g><g class="cls-32"><rect class="cls-33" x="177.75" y="128.51" width="56.24" height="56.24" transform="translate(-50.46 191.45) rotate(-45)"/></g><g class="cls-34"><rect class="cls-35" x="243.15" y="7.5" width="36.19" height="36.19" transform="translate(58.42 192.22) rotate(-45)"/></g><g class="cls-36"><rect class="cls-37" x="233.12" y="39.03" width="56.24" height="56.24" transform="translate(29.04 204.39) rotate(-45)"/></g><g class="cls-34"><rect class="cls-35" x="243.15" y="7.5" width="36.19" height="36.19" transform="translate(58.42 192.22) rotate(-45)"/></g><g class="cls-36"><rect class="cls-37" x="233.12" y="39.03" width="56.24" height="56.24" transform="translate(29.04 204.39) rotate(-45)"/></g><g class="cls-34"><rect class="cls-35" x="243.15" y="7.5" width="36.19" height="36.19" transform="translate(58.42 192.22) rotate(-45)"/></g><g class="cls-36"><rect class="cls-37" x="233.12" y="39.03" width="56.24" height="56.24" transform="translate(29.04 204.39) rotate(-45)"/></g><g class="cls-38"><rect class="cls-39" x="243.15" y="96.98" width="36.19" height="36.19" transform="translate(-4.86 218.43) rotate(-45)"/></g><g class="cls-40"><rect class="cls-41" x="233.12" y="128.51" width="56.24" height="56.24" transform="translate(-34.24 230.6) rotate(-45)"/></g><g class="cls-38"><rect class="cls-39" x="243.15" y="96.98" width="36.19" height="36.19" transform="translate(-4.86 218.43) rotate(-45)"/></g><g class="cls-40"><rect class="cls-41" x="233.12" y="128.51" width="56.24" height="56.24" transform="translate(-34.24 230.6) rotate(-45)"/></g><g class="cls-38"><rect class="cls-39" x="243.15" y="96.98" width="36.19" height="36.19" transform="translate(-4.86 218.43) rotate(-45)"/></g><g class="cls-40"><rect class="cls-41" x="233.12" y="128.51" width="56.24" height="56.24" transform="translate(-34.24 230.6) rotate(-45)"/></g><g class="cls-42"><rect class="cls-43" x="298.51" y="7.5" width="36.19" height="36.19" transform="translate(74.64 231.37) rotate(-45)"/></g><g class="cls-44"><rect class="cls-45" x="288.49" y="39.03" width="56.24" height="56.24" transform="translate(45.25 243.54) rotate(-45)"/></g><g class="cls-42"><rect class="cls-43" x="298.51" y="7.5" width="36.19" height="36.19" transform="translate(74.64 231.37) rotate(-45)"/></g><g class="cls-44"><rect class="cls-45" x="288.49" y="39.03" width="56.24" height="56.24" transform="translate(45.25 243.54) rotate(-45)"/></g><g class="cls-42"><rect class="cls-43" x="298.51" y="7.5" width="36.19" height="36.19" transform="translate(74.64 231.37) rotate(-45)"/></g><g class="cls-44"><rect class="cls-45" x="288.49" y="39.03" width="56.24" height="56.24" transform="translate(45.25 243.54) rotate(-45)"/></g><g class="cls-46"><rect class="cls-47" x="287.1" y="131.87" width="49.52" height="49.52" transform="translate(-19.42 266.39) rotate(-45)"/></g><g class="cls-48"><rect class="cls-49" x="297.57" y="99.27" width="31.62" height="31.62" transform="translate(10.41 255.3) rotate(-45)"/></g><g class="cls-46"><rect class="cls-47" x="287.1" y="131.87" width="49.52" height="49.52" transform="translate(-19.42 266.39) rotate(-45)"/></g><g class="cls-48"><rect class="cls-49" x="297.57" y="99.27" width="31.62" height="31.62" transform="translate(10.41 255.3) rotate(-45)"/></g><g class="cls-46"><rect class="cls-47" x="287.1" y="131.87" width="49.52" height="49.52" transform="translate(-19.42 266.39) rotate(-45)"/></g><g class="cls-48"><rect class="cls-49" x="297.57" y="99.27" width="31.62" height="31.62" transform="translate(10.41 255.3) rotate(-45)"/></g><g class="cls-2"><rect class="cls-3" x="21.67" y="7.5" width="36.19" height="36.19" transform="translate(-6.45 35.61) rotate(-45)"/></g><g class="cls-4"><rect class="cls-5" x="11.65" y="39.03" width="56.24" height="56.24" transform="translate(-35.83 47.79) rotate(-45)"/></g><g class="cls-2"><rect class="cls-3" x="21.67" y="7.5" width="36.19" height="36.19" transform="translate(-6.45 35.61) rotate(-45)"/></g><g class="cls-4"><rect class="cls-5" x="11.65" y="39.03" width="56.24" height="56.24" transform="translate(-35.83 47.79) rotate(-45)"/></g><g class="cls-2"><rect class="cls-3" x="21.67" y="7.5" width="36.19" height="36.19" transform="translate(-6.45 35.61) rotate(-45)"/></g><g class="cls-4"><rect class="cls-5" x="11.65" y="39.03" width="56.24" height="56.24" transform="translate(-35.83 47.79) rotate(-45)"/></g><g class="cls-6"><rect class="cls-7" x="77.04" y="7.49" width="36.19" height="36.19" transform="translate(9.77 74.76) rotate(-45)"/></g><g class="cls-8"><rect class="cls-9" x="67.02" y="39.02" width="56.24" height="56.24" transform="translate(-19.61 86.94) rotate(-45)"/></g><g class="cls-6"><rect class="cls-7" x="77.04" y="7.49" width="36.19" height="36.19" transform="translate(9.77 74.76) rotate(-45)"/></g><g class="cls-8"><rect class="cls-9" x="67.02" y="39.02" width="56.24" height="56.24" transform="translate(-19.61 86.94) rotate(-45)"/></g><g class="cls-6"><rect class="cls-7" x="77.04" y="7.49" width="36.19" height="36.19" transform="translate(9.77 74.76) rotate(-45)"/></g><g class="cls-8"><rect class="cls-9" x="67.02" y="39.02" width="56.24" height="56.24" transform="translate(-19.61 86.94) rotate(-45)"/></g><g class="cls-10"><rect class="cls-11" x="132.41" y="7.5" width="36.19" height="36.19" transform="translate(25.99 113.92) rotate(-45)"/></g><g class="cls-12"><rect class="cls-13" x="122.38" y="39.02" width="56.24" height="56.24" transform="translate(-3.4 126.09) rotate(-45)"/></g><g class="cls-10"><rect class="cls-11" x="132.41" y="7.5" width="36.19" height="36.19" transform="translate(25.99 113.92) rotate(-45)"/></g><g class="cls-12"><rect class="cls-13" x="122.38" y="39.02" width="56.24" height="56.24" transform="translate(-3.4 126.09) rotate(-45)"/></g><g class="cls-10"><rect class="cls-11" x="132.41" y="7.5" width="36.19" height="36.19" transform="translate(25.99 113.92) rotate(-45)"/></g><g class="cls-12"><rect class="cls-13" x="122.38" y="39.02" width="56.24" height="56.24" transform="translate(-3.4 126.09) rotate(-45)"/></g><g class="cls-14"><rect class="cls-15" x="187.78" y="7.5" width="36.19" height="36.19" transform="translate(42.2 153.07) rotate(-45)"/></g><g class="cls-16"><rect class="cls-17" x="177.75" y="39.03" width="56.24" height="56.24" transform="translate(12.82 165.24) rotate(-45)"/></g><g class="cls-14"><rect class="cls-15" x="187.78" y="7.5" width="36.19" height="36.19" transform="translate(42.2 153.07) rotate(-45)"/></g><g class="cls-16"><rect class="cls-17" x="177.75" y="39.03" width="56.24" height="56.24" transform="translate(12.82 165.24) rotate(-45)"/></g><g class="cls-14"><rect class="cls-15" x="187.78" y="7.5" width="36.19" height="36.19" transform="translate(42.2 153.07) rotate(-45)"/></g><g class="cls-16"><rect class="cls-17" x="177.75" y="39.03" width="56.24" height="56.24" transform="translate(12.82 165.24) rotate(-45)"/></g><g class="cls-18"><rect class="cls-19" x="21.67" y="96.98" width="36.19" height="36.19" transform="translate(-69.72 61.83) rotate(-45)"/></g><g class="cls-20"><rect class="cls-21" x="11.65" y="128.51" width="56.24" height="56.24" transform="translate(-99.11 74) rotate(-45)"/></g><g class="cls-18"><rect class="cls-19" x="21.67" y="96.98" width="36.19" height="36.19" transform="translate(-69.72 61.83) rotate(-45)"/></g><g class="cls-20"><rect class="cls-21" x="11.65" y="128.51" width="56.24" height="56.24" transform="translate(-99.11 74) rotate(-45)"/></g><g class="cls-18"><rect class="cls-19" x="21.67" y="96.98" width="36.19" height="36.19" transform="translate(-69.72 61.83) rotate(-45)"/></g><g class="cls-20"><rect class="cls-21" x="11.65" y="128.51" width="56.24" height="56.24" transform="translate(-99.11 74) rotate(-45)"/></g><g class="cls-22"><rect class="cls-23" x="77.04" y="96.98" width="36.19" height="36.19" transform="translate(-53.51 100.98) rotate(-45)"/></g><g class="cls-24"><rect class="cls-25" x="67.02" y="128.51" width="56.24" height="56.24" transform="translate(-82.89 113.15) rotate(-45)"/></g><g class="cls-22"><rect class="cls-23" x="77.04" y="96.98" width="36.19" height="36.19" transform="translate(-53.51 100.98) rotate(-45)"/></g><g class="cls-24"><rect class="cls-25" x="67.02" y="128.51" width="56.24" height="56.24" transform="translate(-82.89 113.15) rotate(-45)"/></g><g class="cls-22"><rect class="cls-23" x="77.04" y="96.98" width="36.19" height="36.19" transform="translate(-53.51 100.98) rotate(-45)"/></g><g class="cls-24"><rect class="cls-25" x="67.02" y="128.51" width="56.24" height="56.24" transform="translate(-82.89 113.15) rotate(-45)"/></g><g class="cls-26"><rect class="cls-27" x="132.41" y="96.98" width="36.19" height="36.19" transform="translate(-37.29 140.13) rotate(-45)"/></g><g class="cls-28"><rect class="cls-29" x="122.38" y="128.51" width="56.24" height="56.24" transform="translate(-66.68 152.3) rotate(-45)"/></g><g class="cls-26"><rect class="cls-27" x="132.41" y="96.98" width="36.19" height="36.19" transform="translate(-37.29 140.13) rotate(-45)"/></g><g class="cls-28"><rect class="cls-29" x="122.38" y="128.51" width="56.24" height="56.24" transform="translate(-66.68 152.3) rotate(-45)"/></g><g class="cls-26"><rect class="cls-27" x="132.41" y="96.98" width="36.19" height="36.19" transform="translate(-37.29 140.13) rotate(-45)"/></g><g class="cls-28"><rect class="cls-29" x="122.38" y="128.51" width="56.24" height="56.24" transform="translate(-66.68 152.3) rotate(-45)"/></g><g class="cls-30"><rect class="cls-31" x="187.78" y="96.98" width="36.19" height="36.19" transform="translate(-21.07 179.28) rotate(-45)"/></g><g class="cls-32"><rect class="cls-33" x="177.75" y="128.51" width="56.24" height="56.24" transform="translate(-50.46 191.45) rotate(-45)"/></g><g class="cls-30"><rect class="cls-31" x="187.78" y="96.98" width="36.19" height="36.19" transform="translate(-21.07 179.28) rotate(-45)"/></g><g class="cls-32"><rect class="cls-33" x="177.75" y="128.51" width="56.24" height="56.24" transform="translate(-50.46 191.45) rotate(-45)"/></g><g class="cls-30"><rect class="cls-31" x="187.78" y="96.98" width="36.19" height="36.19" transform="translate(-21.07 179.28) rotate(-45)"/></g><g class="cls-32"><rect class="cls-33" x="177.75" y="128.51" width="56.24" height="56.24" transform="translate(-50.46 191.45) rotate(-45)"/></g><g class="cls-34"><rect class="cls-35" x="243.15" y="7.5" width="36.19" height="36.19" transform="translate(58.42 192.22) rotate(-45)"/></g><g class="cls-36"><rect class="cls-37" x="233.12" y="39.03" width="56.24" height="56.24" transform="translate(29.04 204.39) rotate(-45)"/></g><g class="cls-34"><rect class="cls-35" x="243.15" y="7.5" width="36.19" height="36.19" transform="translate(58.42 192.22) rotate(-45)"/></g><g class="cls-36"><rect class="cls-37" x="233.12" y="39.03" width="56.24" height="56.24" transform="translate(29.04 204.39) rotate(-45)"/></g><g class="cls-34"><rect class="cls-35" x="243.15" y="7.5" width="36.19" height="36.19" transform="translate(58.42 192.22) rotate(-45)"/></g><g class="cls-36"><rect class="cls-37" x="233.12" y="39.03" width="56.24" height="56.24" transform="translate(29.04 204.39) rotate(-45)"/></g><g class="cls-38"><rect class="cls-39" x="243.15" y="96.98" width="36.19" height="36.19" transform="translate(-4.86 218.43) rotate(-45)"/></g><g class="cls-40"><rect class="cls-41" x="233.12" y="128.51" width="56.24" height="56.24" transform="translate(-34.24 230.6) rotate(-45)"/></g><g class="cls-38"><rect class="cls-39" x="243.15" y="96.98" width="36.19" height="36.19" transform="translate(-4.86 218.43) rotate(-45)"/></g><g class="cls-40"><rect class="cls-41" x="233.12" y="128.51" width="56.24" height="56.24" transform="translate(-34.24 230.6) rotate(-45)"/></g><g class="cls-38"><rect class="cls-39" x="243.15" y="96.98" width="36.19" height="36.19" transform="translate(-4.86 218.43) rotate(-45)"/></g><g class="cls-40"><rect class="cls-41" x="233.12" y="128.51" width="56.24" height="56.24" transform="translate(-34.24 230.6) rotate(-45)"/></g><g class="cls-42"><rect class="cls-43" x="298.51" y="7.5" width="36.19" height="36.19" transform="translate(74.64 231.37) rotate(-45)"/></g><g class="cls-44"><rect class="cls-45" x="288.49" y="39.03" width="56.24" height="56.24" transform="translate(45.25 243.54) rotate(-45)"/></g><g class="cls-42"><rect class="cls-43" x="298.51" y="7.5" width="36.19" height="36.19" transform="translate(74.64 231.37) rotate(-45)"/></g><g class="cls-44"><rect class="cls-45" x="288.49" y="39.03" width="56.24" height="56.24" transform="translate(45.25 243.54) rotate(-45)"/></g><g class="cls-42"><rect class="cls-43" x="298.51" y="7.5" width="36.19" height="36.19" transform="translate(74.64 231.37) rotate(-45)"/></g><g class="cls-44"><rect class="cls-45" x="288.49" y="39.03" width="56.24" height="56.24" transform="translate(45.25 243.54) rotate(-45)"/></g><g class="cls-46"><rect class="cls-47" x="287.1" y="131.87" width="49.52" height="49.52" transform="translate(-19.42 266.39) rotate(-45)"/></g><g class="cls-48"><rect class="cls-49" x="297.57" y="99.27" width="31.62" height="31.62" transform="translate(10.41 255.3) rotate(-45)"/></g><g class="cls-46"><rect class="cls-47" x="287.1" y="131.87" width="49.52" height="49.52" transform="translate(-19.42 266.39) rotate(-45)"/></g><g class="cls-48"><rect class="cls-49" x="297.57" y="99.27" width="31.62" height="31.62" transform="translate(10.41 255.3) rotate(-45)"/></g><g class="cls-46"><rect class="cls-47" x="287.1" y="131.87" width="49.52" height="49.52" transform="translate(-19.42 266.39) rotate(-45)"/></g><g class="cls-48"><rect class="cls-49" x="297.57" y="99.27" width="31.62" height="31.62" transform="translate(10.41 255.3) rotate(-45)"/></g><g class="cls-2"><rect class="cls-3" x="21.67" y="7.5" width="36.19" height="36.19" transform="translate(-6.45 35.61) rotate(-45)"/></g><g class="cls-4"><rect class="cls-5" x="11.65" y="39.03" width="56.24" height="56.24" transform="translate(-35.83 47.79) rotate(-45)"/></g><g class="cls-2"><rect class="cls-3" x="21.67" y="7.5" width="36.19" height="36.19" transform="translate(-6.45 35.61) rotate(-45)"/></g><g class="cls-4"><rect class="cls-5" x="11.65" y="39.03" width="56.24" height="56.24" transform="translate(-35.83 47.79) rotate(-45)"/></g><g class="cls-2"><rect class="cls-3" x="21.67" y="7.5" width="36.19" height="36.19" transform="translate(-6.45 35.61) rotate(-45)"/></g><g class="cls-4"><rect class="cls-5" x="11.65" y="39.03" width="56.24" height="56.24" transform="translate(-35.83 47.79) rotate(-45)"/></g><g class="cls-6"><rect class="cls-7" x="77.04" y="7.49" width="36.19" height="36.19" transform="translate(9.77 74.76) rotate(-45)"/></g><g class="cls-8"><rect class="cls-9" x="67.02" y="39.02" width="56.24" height="56.24" transform="translate(-19.61 86.94) rotate(-45)"/></g><g class="cls-6"><rect class="cls-7" x="77.04" y="7.49" width="36.19" height="36.19" transform="translate(9.77 74.76) rotate(-45)"/></g><g class="cls-8"><rect class="cls-9" x="67.02" y="39.02" width="56.24" height="56.24" transform="translate(-19.61 86.94) rotate(-45)"/></g><g class="cls-6"><rect class="cls-7" x="77.04" y="7.49" width="36.19" height="36.19" transform="translate(9.77 74.76) rotate(-45)"/></g><g class="cls-8"><rect class="cls-9" x="67.02" y="39.02" width="56.24" height="56.24" transform="translate(-19.61 86.94) rotate(-45)"/></g><g class="cls-10"><rect class="cls-11" x="132.41" y="7.5" width="36.19" height="36.19" transform="translate(25.99 113.92) rotate(-45)"/></g><g class="cls-12"><rect class="cls-13" x="122.38" y="39.02" width="56.24" height="56.24" transform="translate(-3.4 126.09) rotate(-45)"/></g><g class="cls-10"><rect class="cls-11" x="132.41" y="7.5" width="36.19" height="36.19" transform="translate(25.99 113.92) rotate(-45)"/></g><g class="cls-12"><rect class="cls-13" x="122.38" y="39.02" width="56.24" height="56.24" transform="translate(-3.4 126.09) rotate(-45)"/></g><g class="cls-10"><rect class="cls-11" x="132.41" y="7.5" width="36.19" height="36.19" transform="translate(25.99 113.92) rotate(-45)"/></g><g class="cls-12"><rect class="cls-13" x="122.38" y="39.02" width="56.24" height="56.24" transform="translate(-3.4 126.09) rotate(-45)"/></g><g class="cls-14"><rect class="cls-15" x="187.78" y="7.5" width="36.19" height="36.19" transform="translate(42.2 153.07) rotate(-45)"/></g><g class="cls-16"><rect class="cls-17" x="177.75" y="39.03" width="56.24" height="56.24" transform="translate(12.82 165.24) rotate(-45)"/></g><g class="cls-14"><rect class="cls-15" x="187.78" y="7.5" width="36.19" height="36.19" transform="translate(42.2 153.07) rotate(-45)"/></g><g class="cls-16"><rect class="cls-17" x="177.75" y="39.03" width="56.24" height="56.24" transform="translate(12.82 165.24) rotate(-45)"/></g><g class="cls-14"><rect class="cls-15" x="187.78" y="7.5" width="36.19" height="36.19" transform="translate(42.2 153.07) rotate(-45)"/></g><g class="cls-16"><rect class="cls-17" x="177.75" y="39.03" width="56.24" height="56.24" transform="translate(12.82 165.24) rotate(-45)"/></g><g class="cls-18"><rect class="cls-19" x="21.67" y="96.98" width="36.19" height="36.19" transform="translate(-69.72 61.83) rotate(-45)"/></g><g class="cls-20"><rect class="cls-21" x="11.65" y="128.51" width="56.24" height="56.24" transform="translate(-99.11 74) rotate(-45)"/></g><g class="cls-18"><rect class="cls-19" x="21.67" y="96.98" width="36.19" height="36.19" transform="translate(-69.72 61.83) rotate(-45)"/></g><g class="cls-20"><rect class="cls-21" x="11.65" y="128.51" width="56.24" height="56.24" transform="translate(-99.11 74) rotate(-45)"/></g><g class="cls-18"><rect class="cls-19" x="21.67" y="96.98" width="36.19" height="36.19" transform="translate(-69.72 61.83) rotate(-45)"/></g><g class="cls-20"><rect class="cls-21" x="11.65" y="128.51" width="56.24" height="56.24" transform="translate(-99.11 74) rotate(-45)"/></g><g class="cls-22"><rect class="cls-23" x="77.04" y="96.98" width="36.19" height="36.19" transform="translate(-53.51 100.98) rotate(-45)"/></g><g class="cls-24"><rect class="cls-25" x="67.02" y="128.51" width="56.24" height="56.24" transform="translate(-82.89 113.15) rotate(-45)"/></g><g class="cls-22"><rect class="cls-23" x="77.04" y="96.98" width="36.19" height="36.19" transform="translate(-53.51 100.98) rotate(-45)"/></g><g class="cls-24"><rect class="cls-25" x="67.02" y="128.51" width="56.24" height="56.24" transform="translate(-82.89 113.15) rotate(-45)"/></g><g class="cls-22"><rect class="cls-23" x="77.04" y="96.98" width="36.19" height="36.19" transform="translate(-53.51 100.98) rotate(-45)"/></g><g class="cls-24"><rect class="cls-25" x="67.02" y="128.51" width="56.24" height="56.24" transform="translate(-82.89 113.15) rotate(-45)"/></g><g class="cls-26"><rect class="cls-27" x="132.41" y="96.98" width="36.19" height="36.19" transform="translate(-37.29 140.13) rotate(-45)"/></g><g class="cls-28"><rect class="cls-29" x="122.38" y="128.51" width="56.24" height="56.24" transform="translate(-66.68 152.3) rotate(-45)"/></g><g class="cls-26"><rect class="cls-27" x="132.41" y="96.98" width="36.19" height="36.19" transform="translate(-37.29 140.13) rotate(-45)"/></g><g class="cls-28"><rect class="cls-29" x="122.38" y="128.51" width="56.24" height="56.24" transform="translate(-66.68 152.3) rotate(-45)"/></g><g class="cls-26"><rect class="cls-27" x="132.41" y="96.98" width="36.19" height="36.19" transform="translate(-37.29 140.13) rotate(-45)"/></g><g class="cls-28"><rect class="cls-29" x="122.38" y="128.51" width="56.24" height="56.24" transform="translate(-66.68 152.3) rotate(-45)"/></g><g class="cls-30"><rect class="cls-31" x="187.78" y="96.98" width="36.19" height="36.19" transform="translate(-21.07 179.28) rotate(-45)"/></g><g class="cls-32"><rect class="cls-33" x="177.75" y="128.51" width="56.24" height="56.24" transform="translate(-50.46 191.45) rotate(-45)"/></g><g class="cls-30"><rect class="cls-31" x="187.78" y="96.98" width="36.19" height="36.19" transform="translate(-21.07 179.28) rotate(-45)"/></g><g class="cls-32"><rect class="cls-33" x="177.75" y="128.51" width="56.24" height="56.24" transform="translate(-50.46 191.45) rotate(-45)"/></g><g class="cls-30"><rect class="cls-31" x="187.78" y="96.98" width="36.19" height="36.19" transform="translate(-21.07 179.28) rotate(-45)"/></g><g class="cls-32"><rect class="cls-33" x="177.75" y="128.51" width="56.24" height="56.24" transform="translate(-50.46 191.45) rotate(-45)"/></g><g class="cls-34"><rect class="cls-35" x="243.15" y="7.5" width="36.19" height="36.19" transform="translate(58.42 192.22) rotate(-45)"/></g><g class="cls-36"><rect class="cls-37" x="233.12" y="39.03" width="56.24" height="56.24" transform="translate(29.04 204.39) rotate(-45)"/></g><g class="cls-34"><rect class="cls-35" x="243.15" y="7.5" width="36.19" height="36.19" transform="translate(58.42 192.22) rotate(-45)"/></g><g class="cls-36"><rect class="cls-37" x="233.12" y="39.03" width="56.24" height="56.24" transform="translate(29.04 204.39) rotate(-45)"/></g><g class="cls-34"><rect class="cls-35" x="243.15" y="7.5" width="36.19" height="36.19" transform="translate(58.42 192.22) rotate(-45)"/></g><g class="cls-36"><rect class="cls-37" x="233.12" y="39.03" width="56.24" height="56.24" transform="translate(29.04 204.39) rotate(-45)"/></g><g class="cls-38"><rect class="cls-39" x="243.15" y="96.98" width="36.19" height="36.19" transform="translate(-4.86 218.43) rotate(-45)"/></g><g class="cls-40"><rect class="cls-41" x="233.12" y="128.51" width="56.24" height="56.24" transform="translate(-34.24 230.6) rotate(-45)"/></g><g class="cls-38"><rect class="cls-39" x="243.15" y="96.98" width="36.19" height="36.19" transform="translate(-4.86 218.43) rotate(-45)"/></g><g class="cls-40"><rect class="cls-41" x="233.12" y="128.51" width="56.24" height="56.24" transform="translate(-34.24 230.6) rotate(-45)"/></g><g class="cls-38"><rect class="cls-39" x="243.15" y="96.98" width="36.19" height="36.19" transform="translate(-4.86 218.43) rotate(-45)"/></g><g class="cls-40"><rect class="cls-41" x="233.12" y="128.51" width="56.24" height="56.24" transform="translate(-34.24 230.6) rotate(-45)"/></g><g class="cls-42"><rect class="cls-43" x="298.51" y="7.5" width="36.19" height="36.19" transform="translate(74.64 231.37) rotate(-45)"/></g><g class="cls-44"><rect class="cls-45" x="288.49" y="39.03" width="56.24" height="56.24" transform="translate(45.25 243.54) rotate(-45)"/></g><g class="cls-42"><rect class="cls-43" x="298.51" y="7.5" width="36.19" height="36.19" transform="translate(74.64 231.37) rotate(-45)"/></g><g class="cls-44"><rect class="cls-45" x="288.49" y="39.03" width="56.24" height="56.24" transform="translate(45.25 243.54) rotate(-45)"/></g><g class="cls-42"><rect class="cls-43" x="298.51" y="7.5" width="36.19" height="36.19" transform="translate(74.64 231.37) rotate(-45)"/></g><g class="cls-44"><rect class="cls-45" x="288.49" y="39.03" width="56.24" height="56.24" transform="translate(45.25 243.54) rotate(-45)"/></g><g class="cls-46"><rect class="cls-47" x="287.1" y="131.87" width="49.52" height="49.52" transform="translate(-19.42 266.39) rotate(-45)"/></g><g class="cls-48"><rect class="cls-49" x="297.57" y="99.27" width="31.62" height="31.62" transform="translate(10.41 255.3) rotate(-45)"/></g><g class="cls-46"><rect class="cls-47" x="287.1" y="131.87" width="49.52" height="49.52" transform="translate(-19.42 266.39) rotate(-45)"/></g><g class="cls-48"><rect class="cls-49" x="297.57" y="99.27" width="31.62" height="31.62" transform="translate(10.41 255.3) rotate(-45)"/></g><g class="cls-46"><rect class="cls-47" x="287.1" y="131.87" width="49.52" height="49.52" transform="translate(-19.42 266.39) rotate(-45)"/></g><g class="cls-48"><rect class="cls-49" x="297.57" y="99.27" width="31.62" height="31.62" transform="translate(10.41 255.3) rotate(-45)"/></g></g></g></svg>