<svg xmlns="http://www.w3.org/2000/svg" xmlns:xlink="http://www.w3.org/1999/xlink" viewBox="0 0 190.27 196.4"><defs><style>.cls-1{fill:none;}.cls-2{clip-path:url(#clip-path);}.cls-3{fill:url(#linear-gradient);}.cls-4{clip-path:url(#clip-path-2);}.cls-5{fill:url(#linear-gradient-2);}.cls-6{clip-path:url(#clip-path-7);}.cls-7{fill:url(#linear-gradient-7);}.cls-8{clip-path:url(#clip-path-8);}.cls-9{fill:url(#linear-gradient-8);}.cls-10{clip-path:url(#clip-path-13);}.cls-11{fill:url(#linear-gradient-13);}.cls-12{clip-path:url(#clip-path-14);}.cls-13{fill:url(#linear-gradient-14);}.cls-14{clip-path:url(#clip-path-19);}.cls-15{fill:url(#linear-gradient-19);}.cls-16{clip-path:url(#clip-path-20);}.cls-17{fill:url(#linear-gradient-20);}.cls-18{clip-path:url(#clip-path-25);}.cls-19{fill:url(#linear-gradient-25);}.cls-20{clip-path:url(#clip-path-26);}.cls-21{fill:url(#linear-gradient-26);}.cls-22{clip-path:url(#clip-path-31);}.cls-23{fill:url(#linear-gradient-31);}.cls-24{clip-path:url(#clip-path-32);}.cls-25{fill:url(#linear-gradient-32);}.cls-26{clip-path:url(#clip-path-78);}.cls-27{fill:#4f9fc9;}.cls-28{fill:#50a0c8;}.cls-29{fill:#50a1c7;}.cls-30{fill:#50a2c6;}.cls-31{fill:#51a2c5;}.cls-32{fill:#51a3c4;}.cls-33{clip-path:url(#clip-path-80);}.cls-34{fill:#4f9dcc;}.cls-35{fill:#4f9dcb;}.cls-36{fill:#4f9eca;}.cls-37{clip-path:url(#clip-path-86);}.cls-38{fill:#51a4c3;}.cls-39{fill:#51a5c2;}.cls-40{clip-path:url(#clip-path-88);}.cls-41{clip-path:url(#clip-path-94);}.cls-42{fill:#52a6c1;}.cls-43{fill:#52a7c0;}.cls-44{fill:#52a7bf;}.cls-45{clip-path:url(#clip-path-96);}.cls-46{clip-path:url(#clip-path-102);}.cls-47{fill:#4e9ccd;}.cls-48{clip-path:url(#clip-path-104);}.cls-49{fill:#4e9bce;}.cls-50{clip-path:url(#clip-path-110);}.cls-51{clip-path:url(#clip-path-112);}.cls-52{clip-path:url(#clip-path-118);}.cls-53{clip-path:url(#clip-path-120);}</style><clipPath id="clip-path"><path class="cls-1" d="M27,25.59A12.79,12.79,0,1,0,39.77,12.79,12.79,12.79,0,0,0,27,25.59"/></clipPath><linearGradient id="linear-gradient" x1="-5093.56" y1="2177.06" x2="-5092.56" y2="2177.06" gradientTransform="matrix(697.45, 0, 0, 697.45, 3552439.33, -1518364.4)" gradientUnits="userSpaceOnUse"><stop offset="0" stop-color="#4e9bce"/><stop offset="1" stop-color="#5bc0a0"/></linearGradient><clipPath id="clip-path-2"><path class="cls-1" d="M23.93,59.05v32H55.6v-32a15.84,15.84,0,1,0-31.68,0"/></clipPath><linearGradient id="linear-gradient-2" x1="-5093.56" y1="2177.06" x2="-5092.56" y2="2177.06" gradientTransform="translate(3552468.07 -1518324.36) scale(697.45)" xlink:href="#linear-gradient"/><clipPath id="clip-path-7"><path class="cls-1" d="M82.34,25.59A12.79,12.79,0,1,0,95.13,12.79,12.79,12.79,0,0,0,82.34,25.59"/></clipPath><linearGradient id="linear-gradient-7" x1="-5093.56" y1="2177.06" x2="-5092.56" y2="2177.06" gradientTransform="translate(3552455.55 -1518364.4) scale(697.45)" xlink:href="#linear-gradient"/><clipPath id="clip-path-8"><path class="cls-1" d="M79.3,59.05v32H111v-32a15.84,15.84,0,0,0-31.68,0"/></clipPath><linearGradient id="linear-gradient-8" x1="-5093.56" y1="2177.06" x2="-5092.56" y2="2177.06" gradientTransform="translate(3552483.12 -1518327.08) scale(697.45)" xlink:href="#linear-gradient"/><clipPath id="clip-path-13"><path class="cls-1" d="M137.71,25.59A12.79,12.79,0,1,0,150.5,12.79a12.79,12.79,0,0,0-12.79,12.79"/></clipPath><linearGradient id="linear-gradient-13" x1="-5093.56" y1="2177.06" x2="-5092.56" y2="2177.06" gradientTransform="matrix(697.45, 0, 0, 697.45, 3552468.14, -1518372.88)" xlink:href="#linear-gradient"/><clipPath id="clip-path-14"><path class="cls-1" d="M134.66,59.05v32h31.68v-32a15.84,15.84,0,1,0-31.68,0"/></clipPath><linearGradient id="linear-gradient-14" x1="-5093.56" y1="2177.06" x2="-5092.56" y2="2177.06" gradientTransform="matrix(697.45, 0, 0, 697.45, 3552500.5, -1518324.36)" xlink:href="#linear-gradient"/><clipPath id="clip-path-19"><path class="cls-1" d="M27,115.08a12.79,12.79,0,1,0,12.79-12.79A12.79,12.79,0,0,0,27,115.08"/></clipPath><linearGradient id="linear-gradient-19" x1="-5093.56" y1="2177.06" x2="-5092.56" y2="2177.06" gradientTransform="translate(3552500.8 -1518279.15) scale(697.45)" xlink:href="#linear-gradient"/><clipPath id="clip-path-20"><path class="cls-1" d="M23.93,148.54v32H55.6v-32a15.84,15.84,0,1,0-31.68,0"/></clipPath><linearGradient id="linear-gradient-20" x1="-5093.56" y1="2177.06" x2="-5092.56" y2="2177.06" gradientTransform="translate(3552530.18 -1518237.6) scale(697.45)" xlink:href="#linear-gradient"/><clipPath id="clip-path-25"><path class="cls-1" d="M82.34,115.08a12.79,12.79,0,1,0,12.79-12.79,12.8,12.8,0,0,0-12.79,12.79"/></clipPath><linearGradient id="linear-gradient-25" x1="-5093.56" y1="2177.06" x2="-5092.56" y2="2177.06" gradientTransform="translate(3552518.83 -1518274.91) scale(697.45)" xlink:href="#linear-gradient"/><clipPath id="clip-path-26"><path class="cls-1" d="M79.3,148.54v32H111v-32a15.84,15.84,0,0,0-31.68,0"/></clipPath><linearGradient id="linear-gradient-26" x1="-5093.56" y1="2177.06" x2="-5092.56" y2="2177.06" gradientTransform="translate(3552547.57 -1518234.87) scale(697.45)" xlink:href="#linear-gradient"/><clipPath id="clip-path-31"><path class="cls-1" d="M137.71,115.08a12.79,12.79,0,1,0,12.79-12.79,12.79,12.79,0,0,0-12.79,12.79"/></clipPath><linearGradient id="linear-gradient-31" x1="-5093.56" y1="2177.06" x2="-5092.56" y2="2177.06" gradientTransform="matrix(697.45, 0, 0, 697.45, 3552531.42, -1518283.39)" xlink:href="#linear-gradient"/><clipPath id="clip-path-32"><path class="cls-1" d="M134.66,148.54v32h31.68v-32a15.84,15.84,0,1,0-31.68,0"/></clipPath><linearGradient id="linear-gradient-32" x1="-5093.56" y1="2177.06" x2="-5092.56" y2="2177.06" gradientTransform="translate(3552563.78 -1518234.87) scale(697.45)" xlink:href="#linear-gradient"/><clipPath id="clip-path-78"><rect class="cls-1" x="21.67" y="7.49" width="36.19" height="36.19" transform="translate(-6.45 35.61) rotate(-45)"/></clipPath><clipPath id="clip-path-80"><rect class="cls-1" x="11.65" y="39.03" width="56.24" height="56.24" transform="translate(-35.83 47.79) rotate(-45)"/></clipPath><clipPath id="clip-path-86"><rect class="cls-1" x="77.04" y="7.49" width="36.19" height="36.19" transform="translate(9.77 74.76) rotate(-45)"/></clipPath><clipPath id="clip-path-88"><rect class="cls-1" x="67.01" y="39.02" width="56.24" height="56.24" transform="translate(-19.61 86.94) rotate(-45)"/></clipPath><clipPath id="clip-path-94"><rect class="cls-1" x="132.41" y="7.49" width="36.19" height="36.19" transform="translate(25.99 113.92) rotate(-45)"/></clipPath><clipPath id="clip-path-96"><rect class="cls-1" x="122.38" y="39.03" width="56.24" height="56.24" transform="translate(-3.4 126.09) rotate(-45)"/></clipPath><clipPath id="clip-path-102"><rect class="cls-1" x="21.67" y="96.98" width="36.19" height="36.19" transform="translate(-69.72 61.82) rotate(-45)"/></clipPath><clipPath id="clip-path-104"><rect class="cls-1" x="11.65" y="128.51" width="56.24" height="56.24" transform="translate(-99.11 74) rotate(-45)"/></clipPath><clipPath id="clip-path-110"><rect class="cls-1" x="77.04" y="96.98" width="36.19" height="36.19" transform="translate(-53.51 100.97) rotate(-45)"/></clipPath><clipPath id="clip-path-112"><rect class="cls-1" x="67.01" y="128.51" width="56.24" height="56.24" transform="translate(-82.89 113.15) rotate(-45)"/></clipPath><clipPath id="clip-path-118"><rect class="cls-1" x="132.41" y="96.98" width="36.19" height="36.19" transform="translate(-37.29 140.13) rotate(-45)"/></clipPath><clipPath id="clip-path-120"><rect class="cls-1" x="122.38" y="128.51" width="56.24" height="56.24" transform="translate(-66.68 152.3) rotate(-45)"/></clipPath></defs><title>Asset 1</title><g id="Layer_2" data-name="Layer 2"><g id="Layer_1-2" data-name="Layer 1"><g class="cls-2"><rect class="cls-3" x="21.67" y="7.49" width="36.19" height="36.19" transform="translate(-6.45 35.61) rotate(-45)"/></g><g class="cls-4"><rect class="cls-5" x="11.65" y="39.03" width="56.24" height="56.24" transform="translate(-35.83 47.79) rotate(-45)"/></g><g class="cls-2"><rect class="cls-3" x="21.67" y="7.49" width="36.19" height="36.19" transform="translate(-6.45 35.61) rotate(-45)"/></g><g class="cls-4"><rect class="cls-5" x="11.65" y="39.03" width="56.24" height="56.24" transform="translate(-35.83 47.79) rotate(-45)"/></g><g class="cls-2"><rect class="cls-3" x="21.67" y="7.49" width="36.19" height="36.19" transform="translate(-6.45 35.61) rotate(-45)"/></g><g class="cls-4"><rect class="cls-5" x="11.65" y="39.03" width="56.24" height="56.24" transform="translate(-35.83 47.79) rotate(-45)"/></g><g class="cls-6"><rect class="cls-7" x="77.04" y="7.49" width="36.19" height="36.19" transform="translate(9.77 74.76) rotate(-45)"/></g><g class="cls-8"><rect class="cls-9" x="67.01" y="39.02" width="56.24" height="56.24" transform="translate(-19.61 86.94) rotate(-45)"/></g><g class="cls-6"><rect class="cls-7" x="77.04" y="7.49" width="36.19" height="36.19" transform="translate(9.77 74.76) rotate(-45)"/></g><g class="cls-8"><rect class="cls-9" x="67.01" y="39.02" width="56.24" height="56.24" transform="translate(-19.61 86.94) rotate(-45)"/></g><g class="cls-6"><rect class="cls-7" x="77.04" y="7.49" width="36.19" height="36.19" transform="translate(9.77 74.76) rotate(-45)"/></g><g class="cls-8"><rect class="cls-9" x="67.01" y="39.02" width="56.24" height="56.24" transform="translate(-19.61 86.94) rotate(-45)"/></g><g class="cls-10"><rect class="cls-11" x="132.41" y="7.49" width="36.19" height="36.19" transform="translate(25.99 113.92) rotate(-45)"/></g><g class="cls-12"><rect class="cls-13" x="122.38" y="39.03" width="56.24" height="56.24" transform="translate(-3.4 126.09) rotate(-45)"/></g><g class="cls-10"><rect class="cls-11" x="132.41" y="7.49" width="36.19" height="36.19" transform="translate(25.99 113.92) rotate(-45)"/></g><g class="cls-12"><rect class="cls-13" x="122.38" y="39.03" width="56.24" height="56.24" transform="translate(-3.4 126.09) rotate(-45)"/></g><g class="cls-10"><rect class="cls-11" x="132.41" y="7.49" width="36.19" height="36.19" transform="translate(25.99 113.92) rotate(-45)"/></g><g class="cls-12"><rect class="cls-13" x="122.38" y="39.03" width="56.24" height="56.24" transform="translate(-3.4 126.09) rotate(-45)"/></g><g class="cls-14"><rect class="cls-15" x="21.67" y="96.98" width="36.19" height="36.19" transform="translate(-69.72 61.82) rotate(-45)"/></g><g class="cls-16"><rect class="cls-17" x="11.65" y="128.51" width="56.24" height="56.24" transform="translate(-99.11 74) rotate(-45)"/></g><g class="cls-14"><rect class="cls-15" x="21.67" y="96.98" width="36.19" height="36.19" transform="translate(-69.72 61.82) rotate(-45)"/></g><g class="cls-16"><rect class="cls-17" x="11.65" y="128.51" width="56.24" height="56.24" transform="translate(-99.11 74) rotate(-45)"/></g><g class="cls-14"><rect class="cls-15" x="21.67" y="96.98" width="36.19" height="36.19" transform="translate(-69.72 61.82) rotate(-45)"/></g><g class="cls-16"><rect class="cls-17" x="11.65" y="128.51" width="56.24" height="56.24" transform="translate(-99.11 74) rotate(-45)"/></g><g class="cls-18"><rect class="cls-19" x="77.04" y="96.98" width="36.19" height="36.19" transform="translate(-53.51 100.97) rotate(-45)"/></g><g class="cls-20"><rect class="cls-21" x="67.01" y="128.51" width="56.24" height="56.24" transform="translate(-82.89 113.15) rotate(-45)"/></g><g class="cls-18"><rect class="cls-19" x="77.04" y="96.98" width="36.19" height="36.19" transform="translate(-53.51 100.97) rotate(-45)"/></g><g class="cls-20"><rect class="cls-21" x="67.01" y="128.51" width="56.24" height="56.24" transform="translate(-82.89 113.15) rotate(-45)"/></g><g class="cls-18"><rect class="cls-19" x="77.04" y="96.98" width="36.19" height="36.19" transform="translate(-53.51 100.97) rotate(-45)"/></g><g class="cls-20"><rect class="cls-21" x="67.01" y="128.51" width="56.24" height="56.24" transform="translate(-82.89 113.15) rotate(-45)"/></g><g class="cls-22"><rect class="cls-23" x="132.41" y="96.98" width="36.19" height="36.19" transform="translate(-37.29 140.13) rotate(-45)"/></g><g class="cls-24"><rect class="cls-25" x="122.38" y="128.51" width="56.24" height="56.24" transform="translate(-66.68 152.3) rotate(-45)"/></g><g class="cls-22"><rect class="cls-23" x="132.41" y="96.98" width="36.19" height="36.19" transform="translate(-37.29 140.13) rotate(-45)"/></g><g class="cls-24"><rect class="cls-25" x="122.38" y="128.51" width="56.24" height="56.24" transform="translate(-66.68 152.3) rotate(-45)"/></g><g class="cls-22"><rect class="cls-23" x="132.41" y="96.98" width="36.19" height="36.19" transform="translate(-37.29 140.13) rotate(-45)"/></g><g class="cls-24"><rect class="cls-25" x="122.38" y="128.51" width="56.24" height="56.24" transform="translate(-66.68 152.3) rotate(-45)"/></g><g class="cls-2"><rect class="cls-3" x="21.67" y="7.49" width="36.19" height="36.19" transform="translate(-6.45 35.61) rotate(-45)"/></g><g class="cls-4"><rect class="cls-5" x="11.65" y="39.03" width="56.24" height="56.24" transform="translate(-35.83 47.79) rotate(-45)"/></g><g class="cls-2"><rect class="cls-3" x="21.67" y="7.49" width="36.19" height="36.19" transform="translate(-6.45 35.61) rotate(-45)"/></g><g class="cls-4"><rect class="cls-5" x="11.65" y="39.03" width="56.24" height="56.24" transform="translate(-35.83 47.79) rotate(-45)"/></g><g class="cls-2"><rect class="cls-3" x="21.67" y="7.49" width="36.19" height="36.19" transform="translate(-6.45 35.61) rotate(-45)"/></g><g class="cls-4"><rect class="cls-5" x="11.65" y="39.03" width="56.24" height="56.24" transform="translate(-35.83 47.79) rotate(-45)"/></g><g class="cls-6"><rect class="cls-7" x="77.04" y="7.49" width="36.19" height="36.19" transform="translate(9.77 74.76) rotate(-45)"/></g><g class="cls-8"><rect class="cls-9" x="67.01" y="39.02" width="56.24" height="56.24" transform="translate(-19.61 86.94) rotate(-45)"/></g><g class="cls-6"><rect class="cls-7" x="77.04" y="7.49" width="36.19" height="36.19" transform="translate(9.77 74.76) rotate(-45)"/></g><g class="cls-8"><rect class="cls-9" x="67.01" y="39.02" width="56.24" height="56.24" transform="translate(-19.61 86.94) rotate(-45)"/></g><g class="cls-6"><rect class="cls-7" x="77.04" y="7.49" width="36.19" height="36.19" transform="translate(9.77 74.76) rotate(-45)"/></g><g class="cls-8"><rect class="cls-9" x="67.01" y="39.02" width="56.24" height="56.24" transform="translate(-19.61 86.94) rotate(-45)"/></g><g class="cls-10"><rect class="cls-11" x="132.41" y="7.49" width="36.19" height="36.19" transform="translate(25.99 113.92) rotate(-45)"/></g><g class="cls-12"><rect class="cls-13" x="122.38" y="39.03" width="56.24" height="56.24" transform="translate(-3.4 126.09) rotate(-45)"/></g><g class="cls-10"><rect class="cls-11" x="132.41" y="7.49" width="36.19" height="36.19" transform="translate(25.99 113.92) rotate(-45)"/></g><g class="cls-12"><rect class="cls-13" x="122.38" y="39.03" width="56.24" height="56.24" transform="translate(-3.4 126.09) rotate(-45)"/></g><g class="cls-10"><rect class="cls-11" x="132.41" y="7.49" width="36.19" height="36.19" transform="translate(25.99 113.92) rotate(-45)"/></g><g class="cls-12"><rect class="cls-13" x="122.38" y="39.03" width="56.24" height="56.24" transform="translate(-3.4 126.09) rotate(-45)"/></g><g class="cls-14"><rect class="cls-15" x="21.67" y="96.98" width="36.19" height="36.19" transform="translate(-69.72 61.82) rotate(-45)"/></g><g class="cls-16"><rect class="cls-17" x="11.65" y="128.51" width="56.24" height="56.24" transform="translate(-99.11 74) rotate(-45)"/></g><g class="cls-14"><rect class="cls-15" x="21.67" y="96.98" width="36.19" height="36.19" transform="translate(-69.72 61.82) rotate(-45)"/></g><g class="cls-16"><rect class="cls-17" x="11.65" y="128.51" width="56.24" height="56.24" transform="translate(-99.11 74) rotate(-45)"/></g><g class="cls-14"><rect class="cls-15" x="21.67" y="96.98" width="36.19" height="36.19" transform="translate(-69.72 61.82) rotate(-45)"/></g><g class="cls-16"><rect class="cls-17" x="11.65" y="128.51" width="56.24" height="56.24" transform="translate(-99.11 74) rotate(-45)"/></g><g class="cls-18"><rect class="cls-19" x="77.04" y="96.98" width="36.19" height="36.19" transform="translate(-53.51 100.97) rotate(-45)"/></g><g class="cls-20"><rect class="cls-21" x="67.01" y="128.51" width="56.24" height="56.24" transform="translate(-82.89 113.15) rotate(-45)"/></g><g class="cls-18"><rect class="cls-19" x="77.04" y="96.98" width="36.19" height="36.19" transform="translate(-53.51 100.97) rotate(-45)"/></g><g class="cls-20"><rect class="cls-21" x="67.01" y="128.51" width="56.24" height="56.24" transform="translate(-82.89 113.15) rotate(-45)"/></g><g class="cls-18"><rect class="cls-19" x="77.04" y="96.98" width="36.19" height="36.19" transform="translate(-53.51 100.97) rotate(-45)"/></g><g class="cls-20"><rect class="cls-21" x="67.01" y="128.51" width="56.24" height="56.24" transform="translate(-82.89 113.15) rotate(-45)"/></g><g class="cls-22"><rect class="cls-23" x="132.41" y="96.98" width="36.19" height="36.19" transform="translate(-37.29 140.13) rotate(-45)"/></g><g class="cls-24"><rect class="cls-25" x="122.38" y="128.51" width="56.24" height="56.24" transform="translate(-66.68 152.3) rotate(-45)"/></g><g class="cls-22"><rect class="cls-23" x="132.41" y="96.98" width="36.19" height="36.19" transform="translate(-37.29 140.13) rotate(-45)"/></g><g class="cls-24"><rect class="cls-25" x="122.38" y="128.51" width="56.24" height="56.24" transform="translate(-66.68 152.3) rotate(-45)"/></g><g class="cls-22"><rect class="cls-23" x="132.41" y="96.98" width="36.19" height="36.19" transform="translate(-37.29 140.13) rotate(-45)"/></g><g class="cls-24"><rect class="cls-25" x="122.38" y="128.51" width="56.24" height="56.24" transform="translate(-66.68 152.3) rotate(-45)"/></g><g class="cls-2"><rect class="cls-3" x="21.67" y="7.49" width="36.19" height="36.19" transform="translate(-6.45 35.61) rotate(-45)"/></g><g class="cls-4"><rect class="cls-5" x="11.65" y="39.03" width="56.24" height="56.24" transform="translate(-35.83 47.79) rotate(-45)"/></g><g class="cls-2"><rect class="cls-3" x="21.67" y="7.49" width="36.19" height="36.19" transform="translate(-6.45 35.61) rotate(-45)"/></g><g class="cls-4"><rect class="cls-5" x="11.65" y="39.03" width="56.24" height="56.24" transform="translate(-35.83 47.79) rotate(-45)"/></g><g class="cls-2"><g class="cls-26"><polygon class="cls-27" points="14.18 42.16 23.2 51.18 14.18 51.18 14.18 42.16"/><polygon class="cls-28" points="14.18 20.72 44.64 51.18 23.2 51.18 14.18 42.16 14.18 20.72"/><polygon class="cls-29" points="14.9 0 65.35 50.45 65.35 51.18 44.64 51.18 14.18 20.72 14.18 0 14.9 0"/><polygon class="cls-30" points="36.35 0 65.35 29.01 65.35 50.45 14.9 0 36.35 0"/><polygon class="cls-31" points="57.79 0 65.35 7.57 65.35 29.01 36.35 0 57.79 0"/><polygon class="cls-32" points="65.35 7.57 57.79 0 65.35 0 65.35 7.57"/></g></g><g class="cls-4"><g class="cls-33"><polygon class="cls-34" points="0 92.31 14.6 106.91 0 106.91 0 92.31"/><polygon class="cls-35" points="0 70.86 36.05 106.91 14.6 106.91 0 92.31 0 70.86"/><polygon class="cls-36" points="0 49.42 57.49 106.91 36.05 106.91 0 70.86 0 49.42"/><polygon class="cls-27" points="0 27.98 78.93 106.91 57.49 106.91 0 49.42 0 27.98"/><polygon class="cls-28" points="20.84 27.38 79.53 86.07 79.53 106.91 78.93 106.91 0 27.98 0 27.38 20.84 27.38"/><polygon class="cls-29" points="42.28 27.38 79.53 64.63 79.53 86.07 20.84 27.38 42.28 27.38"/><polygon class="cls-30" points="63.73 27.38 79.53 43.19 79.53 64.63 42.28 27.38 63.73 27.38"/><polygon class="cls-31" points="79.53 43.19 63.73 27.38 79.53 27.38 79.53 43.19"/></g></g><g class="cls-6"><rect class="cls-7" x="77.04" y="7.49" width="36.19" height="36.19" transform="translate(9.77 74.76) rotate(-45)"/></g><g class="cls-8"><rect class="cls-9" x="67.01" y="39.02" width="56.24" height="56.24" transform="translate(-19.61 86.94) rotate(-45)"/></g><g class="cls-6"><rect class="cls-7" x="77.04" y="7.49" width="36.19" height="36.19" transform="translate(9.77 74.76) rotate(-45)"/></g><g class="cls-8"><rect class="cls-9" x="67.01" y="39.02" width="56.24" height="56.24" transform="translate(-19.61 86.94) rotate(-45)"/></g><g class="cls-6"><g class="cls-37"><polygon class="cls-30" points="69.55 33.2 87.52 51.18 69.55 51.18 69.55 33.2"/><polygon class="cls-31" points="69.55 11.76 108.97 51.18 87.52 51.18 69.55 33.2 69.55 11.76"/><polygon class="cls-32" points="79.23 0 120.72 41.49 120.72 51.18 108.97 51.18 69.55 11.76 69.55 0 79.23 0"/><polygon class="cls-38" points="100.67 0 120.72 20.05 120.72 41.49 79.23 0 100.67 0"/><polygon class="cls-39" points="120.72 20.05 100.67 0 120.72 0 120.72 20.05"/></g></g><g class="cls-8"><g class="cls-40"><polygon class="cls-36" points="55.37 104.79 57.49 106.91 55.37 106.91 55.37 104.79"/><polygon class="cls-27" points="55.37 83.35 78.93 106.91 57.49 106.91 55.37 104.79 55.37 83.35"/><polygon class="cls-28" points="55.37 61.9 100.38 106.91 78.93 106.91 55.37 83.35 55.37 61.9"/><polygon class="cls-29" points="55.37 40.46 121.82 106.91 100.38 106.91 55.37 61.9 55.37 40.46"/><polygon class="cls-30" points="63.72 27.38 134.9 98.56 134.9 106.91 121.82 106.91 55.37 40.46 55.37 27.38 63.72 27.38"/><polygon class="cls-31" points="85.17 27.38 134.9 77.11 134.9 98.56 63.72 27.38 85.17 27.38"/><polygon class="cls-32" points="106.61 27.38 134.9 55.67 134.9 77.11 85.17 27.38 106.61 27.38"/><polygon class="cls-38" points="128.05 27.38 134.9 34.23 134.9 55.67 106.61 27.38 128.05 27.38"/><polygon class="cls-39" points="134.9 34.23 128.05 27.38 134.9 27.38 134.9 34.23"/></g></g><g class="cls-10"><rect class="cls-11" x="132.41" y="7.49" width="36.19" height="36.19" transform="translate(25.99 113.92) rotate(-45)"/></g><g class="cls-12"><rect class="cls-13" x="122.38" y="39.03" width="56.24" height="56.24" transform="translate(-3.4 126.09) rotate(-45)"/></g><g class="cls-10"><rect class="cls-11" x="132.41" y="7.49" width="36.19" height="36.19" transform="translate(25.99 113.92) rotate(-45)"/></g><g class="cls-12"><rect class="cls-13" x="122.38" y="39.03" width="56.24" height="56.24" transform="translate(-3.4 126.09) rotate(-45)"/></g><g class="cls-10"><g class="cls-41"><polygon class="cls-32" points="124.91 45.68 130.41 51.18 124.91 51.18 124.91 45.68"/><polygon class="cls-38" points="124.91 24.24 151.85 51.18 130.41 51.18 124.91 45.68 124.91 24.24"/><polygon class="cls-39" points="124.91 2.8 173.29 51.18 151.85 51.18 124.91 24.24 124.91 2.8"/><polygon class="cls-42" points="143.56 0 176.09 32.53 176.09 51.18 173.29 51.18 124.91 2.8 124.91 0 143.56 0"/><polygon class="cls-43" points="165 0 176.09 11.09 176.09 32.53 143.56 0 165 0"/><polygon class="cls-44" points="176.09 11.09 165 0 176.09 0 176.09 11.09"/></g></g><g class="cls-12"><g class="cls-45"><polygon class="cls-29" points="110.73 95.83 121.82 106.91 110.73 106.91 110.73 95.83"/><polygon class="cls-30" points="110.73 74.39 143.26 106.91 121.82 106.91 110.73 95.83 110.73 74.39"/><polygon class="cls-31" points="110.73 52.95 164.7 106.91 143.26 106.91 110.73 74.39 110.73 52.95"/><polygon class="cls-32" points="110.73 31.5 186.14 106.91 164.7 106.91 110.73 52.95 110.73 31.5"/><polygon class="cls-38" points="128.05 27.38 190.27 89.59 190.27 106.91 186.14 106.91 110.73 31.5 110.73 27.38 128.05 27.38"/><polygon class="cls-39" points="149.49 27.38 190.27 68.15 190.27 89.59 128.05 27.38 149.49 27.38"/><polygon class="cls-42" points="170.94 27.38 190.27 46.71 190.27 68.15 149.49 27.38 170.94 27.38"/><polygon class="cls-43" points="190.27 46.71 170.94 27.38 190.27 27.38 190.27 46.71"/></g></g><g class="cls-14"><rect class="cls-15" x="21.67" y="96.98" width="36.19" height="36.19" transform="translate(-69.72 61.82) rotate(-45)"/></g><g class="cls-16"><rect class="cls-17" x="11.65" y="128.51" width="56.24" height="56.24" transform="translate(-99.11 74) rotate(-45)"/></g><g class="cls-14"><rect class="cls-15" x="21.67" y="96.98" width="36.19" height="36.19" transform="translate(-69.72 61.82) rotate(-45)"/></g><g class="cls-16"><rect class="cls-17" x="11.65" y="128.51" width="56.24" height="56.24" transform="translate(-99.11 74) rotate(-45)"/></g><g class="cls-14"><g class="cls-46"><polygon class="cls-47" points="14.18 127.93 26.91 140.66 14.18 140.66 14.18 127.93"/><polygon class="cls-34" points="14.18 106.48 48.36 140.66 26.91 140.66 14.18 127.93 14.18 106.48"/><polygon class="cls-35" points="18.62 89.49 65.35 136.22 65.35 140.66 48.36 140.66 14.18 106.48 14.18 89.49 18.62 89.49"/><polygon class="cls-36" points="40.07 89.49 65.35 114.78 65.35 136.22 18.62 89.49 40.07 89.49"/><polygon class="cls-27" points="61.51 89.49 65.35 93.33 65.35 114.78 40.07 89.49 61.51 89.49"/><polygon class="cls-28" points="65.35 93.33 61.51 89.49 65.35 89.49 65.35 93.33"/></g></g><g class="cls-16"><g class="cls-48"><polygon class="cls-49" points="0 156.63 39.77 196.4 0 196.4 0 156.63"/><polygon class="cls-49" points="0 135.19 61.21 196.4 39.77 196.4 0 156.63 0 135.19"/><polygon class="cls-47" points="3.12 116.87 79.53 193.28 79.53 196.4 61.21 196.4 0 135.19 0 116.87 3.12 116.87"/><polygon class="cls-34" points="24.56 116.87 79.53 171.84 79.53 193.28 3.12 116.87 24.56 116.87"/><polygon class="cls-35" points="46 116.87 79.53 150.4 79.53 171.84 24.56 116.87 46 116.87"/><polygon class="cls-36" points="67.45 116.87 79.53 128.95 79.53 150.4 46 116.87 67.45 116.87"/><polygon class="cls-27" points="79.53 128.95 67.45 116.87 79.53 116.87 79.53 128.95"/></g></g><g class="cls-18"><rect class="cls-19" x="77.04" y="96.98" width="36.19" height="36.19" transform="translate(-53.51 100.97) rotate(-45)"/></g><g class="cls-20"><rect class="cls-21" x="67.01" y="128.51" width="56.24" height="56.24" transform="translate(-82.89 113.15) rotate(-45)"/></g><g class="cls-18"><rect class="cls-19" x="77.04" y="96.98" width="36.19" height="36.19" transform="translate(-53.51 100.97) rotate(-45)"/></g><g class="cls-20"><rect class="cls-21" x="67.01" y="128.51" width="56.24" height="56.24" transform="translate(-82.89 113.15) rotate(-45)"/></g><g class="cls-18"><g class="cls-50"><polygon class="cls-35" points="69.55 140.41 69.8 140.66 69.55 140.66 69.55 140.41"/><polygon class="cls-36" points="69.55 118.97 91.24 140.66 69.8 140.66 69.55 140.41 69.55 118.97"/><polygon class="cls-27" points="69.55 97.53 112.69 140.66 91.24 140.66 69.55 118.97 69.55 97.53"/><polygon class="cls-28" points="82.95 89.49 120.72 127.26 120.72 140.66 112.69 140.66 69.55 97.53 69.55 89.49 82.95 89.49"/><polygon class="cls-29" points="104.39 89.49 120.72 105.82 120.72 127.26 82.95 89.49 104.39 89.49"/><polygon class="cls-30" points="120.72 105.82 104.39 89.49 120.72 89.49 120.72 105.82"/></g></g><g class="cls-20"><g class="cls-51"><polygon class="cls-49" points="55.37 190.56 61.21 196.4 55.37 196.4 55.37 190.56"/><polygon class="cls-47" points="55.37 169.12 82.65 196.4 61.21 196.4 55.37 190.56 55.37 169.12"/><polygon class="cls-34" points="55.37 147.67 104.09 196.4 82.65 196.4 55.37 169.12 55.37 147.67"/><polygon class="cls-35" points="55.37 126.23 125.54 196.4 104.09 196.4 55.37 147.67 55.37 126.23"/><polygon class="cls-36" points="67.44 116.87 134.9 184.32 134.9 196.4 125.54 196.4 55.37 126.23 55.37 116.87 67.44 116.87"/><polygon class="cls-27" points="88.89 116.87 134.9 162.88 134.9 184.32 67.44 116.87 88.89 116.87"/><polygon class="cls-28" points="110.33 116.87 134.9 141.44 134.9 162.88 88.89 116.87 110.33 116.87"/><polygon class="cls-29" points="131.77 116.87 134.9 120 134.9 141.44 110.33 116.87 131.77 116.87"/><polygon class="cls-30" points="134.9 120 131.77 116.87 134.9 116.87 134.9 120"/></g></g><g class="cls-22"><rect class="cls-23" x="132.41" y="96.98" width="36.19" height="36.19" transform="translate(-37.29 140.13) rotate(-45)"/></g><g class="cls-24"><rect class="cls-25" x="122.38" y="128.51" width="56.24" height="56.24" transform="translate(-66.68 152.3) rotate(-45)"/></g><g class="cls-22"><rect class="cls-23" x="132.41" y="96.98" width="36.19" height="36.19" transform="translate(-37.29 140.13) rotate(-45)"/></g><g class="cls-24"><rect class="cls-25" x="122.38" y="128.51" width="56.24" height="56.24" transform="translate(-66.68 152.3) rotate(-45)"/></g><g class="cls-22"><g class="cls-52"><polygon class="cls-28" points="124.91 131.45 134.13 140.66 124.91 140.66 124.91 131.45"/><polygon class="cls-29" points="124.91 110.01 155.57 140.66 134.13 140.66 124.91 131.45 124.91 110.01"/><polygon class="cls-30" points="125.84 89.49 176.09 139.74 176.09 140.66 155.57 140.66 124.91 110.01 124.91 89.49 125.84 89.49"/><polygon class="cls-31" points="147.28 89.49 176.09 118.3 176.09 139.74 125.84 89.49 147.28 89.49"/><polygon class="cls-32" points="168.72 89.49 176.09 96.86 176.09 118.3 147.28 89.49 168.72 89.49"/><polygon class="cls-38" points="176.09 96.86 168.72 89.49 176.09 89.49 176.09 96.86"/></g></g><g class="cls-24"><g class="cls-53"><polygon class="cls-35" points="110.73 181.6 125.54 196.4 110.73 196.4 110.73 181.6"/><polygon class="cls-36" points="110.73 160.16 146.98 196.4 125.54 196.4 110.73 181.6 110.73 160.16"/><polygon class="cls-27" points="110.73 138.72 168.42 196.4 146.98 196.4 110.73 160.16 110.73 138.72"/><polygon class="cls-28" points="110.73 117.27 189.86 196.4 168.42 196.4 110.73 138.72 110.73 117.27"/><polygon class="cls-29" points="131.77 116.87 190.27 175.36 190.27 196.4 189.86 196.4 110.73 117.27 110.73 116.87 131.77 116.87"/><polygon class="cls-30" points="153.21 116.87 190.27 153.92 190.27 175.36 131.77 116.87 153.21 116.87"/><polygon class="cls-31" points="174.66 116.87 190.27 132.48 190.27 153.92 153.21 116.87 174.66 116.87"/><polygon class="cls-32" points="190.27 132.48 174.66 116.87 190.27 116.87 190.27 132.48"/></g></g></g></g></svg>