<svg xmlns="http://www.w3.org/2000/svg" xmlns:xlink="http://www.w3.org/1999/xlink" viewBox="0 0 805.02 54.48"><defs><style>.cls-1{fill:none;}.cls-2{clip-path:url(#clip-path);}.cls-3{fill:#231f20;}.cls-4{opacity:0.6;}.cls-5{clip-path:url(#clip-path-3);}.cls-6{clip-path:url(#clip-path-4);}</style><clipPath id="clip-path" transform="translate(-47.98 -36.75)"><rect class="cls-1" width="900" height="127"/></clipPath><clipPath id="clip-path-3" transform="translate(-47.98 -36.75)"><rect class="cls-1" x="403.96" y="36.77" width="45.64" height="54.45"/></clipPath><clipPath id="clip-path-4" transform="translate(-47.98 -36.75)"><rect class="cls-1" x="808.37" y="43.78" width="44.61" height="45.58"/></clipPath></defs><title>Asset 1</title><g id="Layer_2" data-name="Layer 2"><g id="Layer_1-2" data-name="Layer 1"><g class="cls-2"><g class="cls-2"><path class="cls-3" d="M84.75,45.93l.92,12.85H84.32c-3.44-8.54-4.67-10.94-10.08-10.94H69.75V83.17c0,3.5,1.72,3.69,6,4.24v1.66H58V87.41c4.24-.55,6-.74,6-4.24V47.83H59.43c-5.41,0-6.64,2.4-10.08,10.94H48l.92-12.85Z" transform="translate(-47.98 -36.75)"/><path class="cls-3" d="M138.1,87.41c4.55-.55,5.41-.86,5.41-4.36V51.95c0-3.5-.86-3.81-5.41-4.36V45.93h32.08l.31,10.26h-1.23c-2.76-6.58-4.73-8.24-9-8.24h-11V65.78h9.77c2.64,0,3.69-1.84,4.36-5.53h1.66V73.34h-1.66c-.68-3.69-1.72-5.53-4.36-5.53h-9.77V82.86c0,3.32,1.78,4.18,6,4.18H161c4.36,0,6.51-2.58,10.32-9h1.48l-1.84,11.06H138.1Z" transform="translate(-47.98 -36.75)"/><path class="cls-3" d="M304.94,82.74c0,3.68.9,4,5.68,4.58v1.74H293.19V87.33c4.78-.58,5.68-.9,5.68-4.58V50.08c0-3.68-.9-4-5.68-4.58V43.75h17.43V45.5c-4.78.58-5.68.9-5.68,4.58Z" transform="translate(-47.98 -36.75)"/><path class="cls-3" d="M350.13,76.48" transform="translate(-47.98 -36.75)"/><path class="cls-3" d="M370.85,82.87c0,3.68,1.81,3.87,6.26,4.45v1.74H358.78V87.33c4.45-.58,6.33-.77,6.33-4.45v-12l-12.91-23a4.4,4.4,0,0,0-3.81-2.39V43.75h16.46V45.5c-4.39.13-5.75.65-5.75,2.39a6.62,6.62,0,0,0,1.16,3L370,68l9.68-17.11a7.42,7.42,0,0,0,1.1-3.1c0-1.74-1.29-2.19-5.68-2.32V43.75h12.72V45.5A4.53,4.53,0,0,0,384,47.88L370.85,70.8Z" transform="translate(-47.98 -36.75)"/><path class="cls-3" d="M551.82,82.74c0,3.68.9,4,5.68,4.58v1.74H540.07V87.33c4.78-.58,5.68-.9,5.68-4.58V50.08c0-3.68-.91-4-5.68-4.58V43.75H557.5V45.5c-4.78.58-5.68.9-5.68,4.58Z" transform="translate(-47.98 -36.75)"/><path class="cls-3" d="M574.16,81.91c0,3.94,1.68,4.78,8,5.29v1.87H562.41V87.33c4.78-.58,5.68-.9,5.68-4.58V50.08c0-3.68-.91-4-5.68-4.58V43.75h32.47l.26,11h-1.29c-2.32-7-5-8.84-9.36-8.84H574.16V65.25h8.91c2.78,0,3.74-2.2,4.39-6.07h1.74V73.45h-1.74c-.65-3.87-1.61-6.07-4.39-6.07h-8.91Z" transform="translate(-47.98 -36.75)"/><path class="cls-3" d="M657.7,82.74c0,3.68.91,4,5.68,4.58v1.74H646V87.33c4.78-.58,5.68-.9,5.68-4.58V50.08c0-3.68-.91-4-5.68-4.58V43.75h17.3c11,0,16.4,5.16,16.4,12.33,0,7.55-6.59,11.3-11.43,12.2l10.59,13.62c3.1,4,5.23,5.36,8.84,5.42v1.74H678a24.6,24.6,0,0,1-5.36-5.75L662.15,69.25H657.7Zm0-36.86V67.12h4.39c7.62,0,11-4.07,11-11,0-5.55-3.48-10.2-11.29-10.2Z" transform="translate(-47.98 -36.75)"/><path class="cls-3" d="M751.51,82.74c0,3.68.9,4,5.68,4.58v1.74H739.76V87.33c4.78-.58,5.68-.9,5.68-4.58V50.08c0-3.68-.9-4-5.68-4.58V43.75h17.43V45.5c-4.78.58-5.68.9-5.68,4.58Z" transform="translate(-47.98 -36.75)"/><path class="cls-3" d="M193.81,90.44v-2c4.69-1,5.67-1.06,5.67-5.35V44.9c0-4.3-1-4.25-5.67-5.2V37.5h21.36c20.17,0,29,11.84,29,25,0,17.87-12.65,28-27.86,28ZM207,44.9V82.6C207,87,209.16,88,214.13,88h2.16c11.21,0,19.53-8,19.53-23.76,0-12.44-5.76-24.21-22.09-24.21,0,0-4.24-.35-5.73,1-.74.68-1,3.88-1,3.88" transform="translate(-47.98 -36.75)"/><path class="cls-3" d="M327.28,82.55c0,3.48,1.87,4.39,6.33,4.39h3.81c5.49,0,7.62.37,11.11-6.35h1.61l-2.07,8.47H315.53V87.33c4.78-.58,5.68-.9,5.68-4.58V50.08c0-3.68-.9-4-5.68-4.58V43.75H333V45.5c-4.78.58-5.68.9-5.68,4.58Z" transform="translate(-47.98 -36.75)"/><path class="cls-3" d="M84.75,45.93l.92,12.85H84.32c-3.44-8.54-4.67-10.94-10.08-10.94H69.75V83.17c0,3.5,1.72,3.69,6,4.24v1.66H58V87.41c4.24-.55,6-.74,6-4.24V47.83H59.43c-5.41,0-6.64,2.4-10.08,10.94H48l.92-12.85Z" transform="translate(-47.98 -36.75)"/><path class="cls-3" d="M138.1,87.41c4.55-.55,5.41-.86,5.41-4.36V51.95c0-3.5-.86-3.81-5.41-4.36V45.93h32.08l.31,10.26h-1.23c-2.76-6.58-4.73-8.24-9-8.24h-11V65.78h9.77c2.64,0,3.69-1.84,4.36-5.53h1.66V73.34h-1.66c-.68-3.69-1.72-5.53-4.36-5.53h-9.77V82.86c0,3.32,1.78,4.18,6,4.18H161c4.36,0,6.51-2.58,10.32-9h1.48l-1.84,11.06H138.1Z" transform="translate(-47.98 -36.75)"/><path class="cls-3" d="M304.94,82.74c0,3.68.9,4,5.68,4.58v1.74H293.19V87.33c4.78-.58,5.68-.9,5.68-4.58V50.08c0-3.68-.9-4-5.68-4.58V43.75h17.43V45.5c-4.78.58-5.68.9-5.68,4.58Z" transform="translate(-47.98 -36.75)"/><path class="cls-3" d="M370.85,82.87c0,3.68,1.81,3.87,6.26,4.45v1.74h-18.8l.46-1.74c4.45-.58,6.33-.77,6.33-4.45v-12l-12.91-23a4.4,4.4,0,0,0-3.81-2.39V43.75h16.46V45.5c-4.39.13-5.75.65-5.75,2.39a6.62,6.62,0,0,0,1.16,3L370,68l9.68-17.11a7.42,7.42,0,0,0,1.1-3.1c0-1.74-1.29-2.19-5.68-2.32V43.75h12.72V45.5A4.53,4.53,0,0,0,384,47.88L370.85,70.8Z" transform="translate(-47.98 -36.75)"/><path class="cls-3" d="M511.58,82.55c0,3.48,1.87,4.39,6.33,4.39h3.81c5.49,0,7.62.37,11.1-6.35h1.62l-2.07,8.47H499.83V87.33c4.78-.58,5.68-.9,5.68-4.58V50.08c0-3.68-.91-4-5.68-4.58V43.75h17.43V45.5c-4.78.58-5.68.9-5.68,4.58Z" transform="translate(-47.98 -36.75)"/><path class="cls-3" d="M551.82,82.74c0,3.68.9,4,5.68,4.58v1.74H539.7l.37-1.74c4.78-.58,5.68-.9,5.68-4.58V50.08c0-3.68-.91-4-5.68-4.58V43.75H557.5V45.5c-4.78.58-5.68.9-5.68,4.58Z" transform="translate(-47.98 -36.75)"/><path class="cls-3" d="M574.16,81.91c0,3.94,1.68,4.78,8,5.29v1.87H562.41V87.33c4.78-.58,5.68-.9,5.68-4.58V50.08c0-3.68-.91-4-5.68-4.58V43.75h32.47l.26,11h-1.29c-2.32-7-5-8.84-9.36-8.84H574.16V65.25h8.91c2.78,0,3.74-2.2,4.39-6.07h1.74V73.45h-1.74c-.65-3.87-1.61-6.07-4.39-6.07h-8.91Z" transform="translate(-47.98 -36.75)"/><path class="cls-3" d="M599.19,67.32c0-14.78,9.46-24.21,21.35-24.21,13.43,0,20.94,10.72,20.94,22.4,0,14.78-9.53,24.21-21.41,24.21-13.43,0-20.88-10.72-20.88-22.4m35.31-.91c0-10-4.56-21.17-14.5-21.17-9,0-13.9,9.62-13.9,21.17,0,10,4.57,21.18,14.5,21.18,9,0,13.9-9.62,13.9-21.18" transform="translate(-47.98 -36.75)"/><path class="cls-3" d="M657.7,82.74c0,3.68.91,4,5.68,4.58v1.74H646V87.33c4.78-.58,5.68-.9,5.68-4.58V50.08c0-3.68-.91-4-5.68-4.58V43.75h17.3c11,0,16.4,5.16,16.4,12.33,0,7.55-6.59,11.3-11.43,12.2l10.59,13.62c3.1,4,5.23,5.36,8.84,5.42v1.74H678a24.6,24.6,0,0,1-5.36-5.75L662.15,69.25H657.7Zm0-36.86V67.12h4.39c7.62,0,11-4.07,11-11,0-5.55-3.48-10.2-11.29-10.2Z" transform="translate(-47.98 -36.75)"/><path class="cls-3" d="M692.13,43.75h8.63l26.53,34.54V50.21c0-3.68-1-4.2-6.33-4.71V43.75h14.53V45.5c-4.78.58-5.68,1-5.68,4.71V89.33H728.2L699.08,51.82V82.61c0,3.68,1,4.2,6.33,4.71v1.74H690.88V87.33c4.78-.58,5.68-1,5.68-4.71V49.43" transform="translate(-47.98 -36.75)"/><path class="cls-3" d="M751.51,82.74c0,3.68.9,4,5.68,4.58v1.74H739.76V87.33c4.78-.58,5.68-.9,5.68-4.58V50.08c0-3.68-.9-4-5.68-4.58V43.75h17.43l.39,1.78c-5,.4-6.07.87-6.07,4.55Z" transform="translate(-47.98 -36.75)"/><path class="cls-3" d="M449.16,41.2c1,1.16,0,11,0,11H447c-1.77-8.52-8.44-13-16.62-13C418.26,39.24,412.16,50,412.16,63c0,14.25,6.74,25.72,18.86,25.72,8.51,0,13.64-4.38,16.05-15h2.41s.35,12.2-1,13.42c-2.66,2.33-10.11,4.07-17.42,4.07-16.61,0-27-10.78-27-26.09,0-17.27,11.24-28.35,26.4-28.35,6.9,0,16.77,2.14,18.78,4.45" transform="translate(-47.98 -36.75)"/><path class="cls-3" d="M809.63,43.75h8.63l26.53,34.54V50.21c0-3.68-1-4.2-6.33-4.71V43.75H853V45.5c-4.78.58-5.68,1-5.68,4.71V89.33H845.7L816.58,51.82V82.61c0,3.68,1,4.2,6.33,4.71v1.74H808.39V87.33c4.77-.58,5.68-1,5.68-4.71V49.43" transform="translate(-47.98 -36.75)"/><path class="cls-3" d="M84.75,45.93l.92,12.85H84.32c-3.44-8.54-4.67-10.94-10.08-10.94H69.75V83.17c0,3.5,1.72,3.69,6,4.24v1.66H58V87.41c4.24-.55,6-.74,6-4.24V47.83H59.43c-5.41,0-6.64,2.4-10.08,10.94H48l.92-12.85Z" transform="translate(-47.98 -36.75)"/><path class="cls-3" d="M138.1,87.41c4.55-.55,5.41-.86,5.41-4.36V52c0-3.5-.86-3.81-5.41-4.36V45.93h32.08l.31,10.26h-1.23c-2.76-6.58-4.73-8.24-9-8.24h-11V65.78h9.77c2.64,0,3.69-1.85,4.36-5.53h1.66V73.34h-1.66c-.68-3.69-1.72-5.53-4.36-5.53h-9.77V82.86c0,3.32,1.78,4.18,6,4.18H161c4.36,0,6.51-2.58,10.32-9h1.48l-1.84,11.06H138.1Z" transform="translate(-47.98 -36.75)"/><path class="cls-3" d="M304.94,82.75c0,3.68.9,4,5.68,4.58v1.74H293.19V87.33c4.78-.58,5.68-.9,5.68-4.58V50.08c0-3.68-.9-4-5.68-4.58V43.76h17.43V45.5c-4.78.58-5.68.9-5.68,4.58Z" transform="translate(-47.98 -36.75)"/><path class="cls-3" d="M350.13,76.48" transform="translate(-47.98 -36.75)"/><path class="cls-3" d="M370.85,82.87c0,3.68,1.81,3.87,6.26,4.45v1.74H358.78V87.33c4.45-.58,6.33-.77,6.33-4.45v-12l-12.91-23a4.4,4.4,0,0,0-3.81-2.39V43.76h16.46V45.5c-4.39.13-5.75.65-5.75,2.39a6.62,6.62,0,0,0,1.16,3L370,68l9.68-17.11a7.41,7.41,0,0,0,1.1-3.1c0-1.74-1.29-2.19-5.68-2.32V43.76h12.72V45.5A4.52,4.52,0,0,0,384,47.89L370.85,70.8Z" transform="translate(-47.98 -36.75)"/><path class="cls-3" d="M551.82,82.75c0,3.68.9,4,5.68,4.58v1.74H540.07V87.33c4.78-.58,5.68-.9,5.68-4.58V50.08c0-3.68-.91-4-5.68-4.58V43.76H557.5V45.5c-4.78.58-5.68.9-5.68,4.58Z" transform="translate(-47.98 -36.75)"/><path class="cls-3" d="M574.16,81.91c0,3.94,1.68,4.78,8,5.29v1.87H562.41V87.33c4.78-.58,5.68-.9,5.68-4.58V50.08c0-3.68-.91-4-5.68-4.58V43.76h32.47l.26,11h-1.29c-2.32-7-5-8.84-9.36-8.84H574.16V65.25h8.91c2.78,0,3.74-2.19,4.39-6.07h1.74V73.45h-1.74c-.65-3.87-1.61-6.07-4.39-6.07h-8.91Z" transform="translate(-47.98 -36.75)"/><path class="cls-3" d="M657.7,82.74c0,3.68.91,4,5.68,4.58v1.74H646V87.33c4.78-.58,5.68-.9,5.68-4.58V50.08c0-3.68-.91-4-5.68-4.58V43.75h17.3c11,0,16.4,5.16,16.4,12.33,0,7.55-6.59,11.3-11.43,12.2l10.59,13.62c3.1,4,5.23,5.36,8.84,5.42v1.74H678a24.6,24.6,0,0,1-5.36-5.75L662.15,69.25H657.7Zm0-36.86V67.12h4.39c7.62,0,11-4.07,11-11,0-5.55-3.48-10.2-11.29-10.2Z" transform="translate(-47.98 -36.75)"/><path class="cls-3" d="M751.51,82.75c0,3.68.9,4,5.68,4.58v1.74H739.76V87.33c4.78-.58,5.68-.9,5.68-4.58V50.08c0-3.68-.9-4-5.68-4.58V43.76h17.43V45.5c-4.78.58-5.68.9-5.68,4.58Z" transform="translate(-47.98 -36.75)"/><path d="M193.79,90.47v-2c4.68-1,5.67-1.06,5.67-5.35V44.92c0-4.3-1-4.25-5.67-5.2v-2.2h21.36c20.17,0,29,11.84,29,25,0,17.87-12.65,28-27.85,28ZM207,44.92v37.7c0,4.45,2.16,5.35,7.12,5.35h2.16c11.21,0,19.53-8,19.53-23.76C235.8,51.78,230,40,213.71,40c0,0-4.24-.35-5.73,1-.74.68-1,3.89-1,3.89" transform="translate(-47.98 -36.75)"/><path d="M327.26,82.58c0,3.48,1.87,4.39,6.33,4.39h3.81c5.49,0,7.62.37,11.11-6.35h1.61L348,89.1H315.51V87.35c4.78-.58,5.68-.9,5.68-4.58V50.11c0-3.68-.91-4-5.68-4.58V43.78h17.43v1.74c-4.78.58-5.68.9-5.68,4.58Z" transform="translate(-47.98 -36.75)"/><path d="M84.73,46l.92,12.85H84.3c-3.44-8.54-4.67-10.94-10.08-10.94H69.73V83.2c0,3.5,1.72,3.69,6,4.24V89.1H57.93V87.44c4.24-.55,6-.74,6-4.24V47.86H59.41c-5.41,0-6.64,2.4-10.08,10.94H48L48.9,46Z" transform="translate(-47.98 -36.75)"/><path d="M100.65,65.81h21.52L122.22,52c0-3.5-.86-3.81-5.41-4.36V46H133.4v1.66c-4.55.55-5.41.86-5.41,4.36v31.1c0,3.5.86,3.81,5.41,4.36V89.1H116.81V87.44c4.55-.55,5.41-.86,5.41-4.36l-.05-15.16H100.65V83.08c0,3.5.86,3.81,5.41,4.36V89.1H89.46V87.44c4.55-.55,5.41-.86,5.41-4.36V52c0-3.5-.86-3.81-5.41-4.36V46h16.59v1.66c-4.55.55-5.41.86-5.41,4.36Z" transform="translate(-47.98 -36.75)"/><path d="M138.08,87.44c4.55-.55,5.41-.86,5.41-4.36V52c0-3.5-.86-3.81-5.41-4.36V46h32.08l.31,10.26h-1.23c-2.76-6.58-4.73-8.24-9-8.24h-11V65.81H159c2.64,0,3.69-1.84,4.36-5.53h1.66V73.36H163.4c-.68-3.69-1.72-5.53-4.36-5.53l-9.77.08v15c0,3.32,1.78,4.18,6,4.18h5.65c4.36,0,6.51-2.58,10.32-9h1.48L170.89,89.1H138.08Z" transform="translate(-47.98 -36.75)"/><path d="M304.92,82.77c0,3.68.9,4,5.68,4.58V89.1H293.17V87.35c4.78-.58,5.68-.9,5.68-4.58V50.11c0-3.68-.9-4-5.68-4.58V43.78H310.6v1.74c-4.78.58-5.68.9-5.68,4.58Z" transform="translate(-47.98 -36.75)"/><path d="M370.83,82.9c0,3.68,1.81,3.87,6.26,4.45V89.1H358.3l.46-1.74c4.45-.58,6.33-.77,6.33-4.45v-12l-12.91-23a4.4,4.4,0,0,0-3.81-2.39V43.78h16.46v1.74c-4.39.13-5.75.65-5.75,2.39a6.62,6.62,0,0,0,1.16,3L370,68.05l9.68-17.11a7.41,7.41,0,0,0,1.1-3.1c0-1.74-1.29-2.19-5.68-2.32V43.78h12.72v1.74A4.52,4.52,0,0,0,384,47.91L370.83,70.83Z" transform="translate(-47.98 -36.75)"/><path d="M511.56,82.58c0,3.48,1.87,4.39,6.33,4.39h3.81c5.49,0,7.62.37,11.1-6.35h1.61l-2.07,8.47H499.82V87.35c4.77-.58,5.68-.9,5.68-4.58V50.11c0-3.68-.91-4-5.68-4.58V43.78h17.43v1.74c-4.78.58-5.68.9-5.68,4.58Z" transform="translate(-47.98 -36.75)"/><path d="M551.8,82.77c0,3.68.9,4,5.68,4.58V89.1h-17.8l.37-1.74c4.78-.58,5.68-.9,5.68-4.58V50.11c0-3.68-.9-4-5.68-4.58V43.78h17.43v1.74c-4.78.58-5.68.9-5.68,4.58Z" transform="translate(-47.98 -36.75)"/><path d="M574.14,81.93c0,3.94,1.68,4.78,8,5.29V89.1H562.39V87.35c4.78-.58,5.68-.9,5.68-4.58V50.11c0-3.68-.91-4-5.68-4.58V43.78h32.47l.26,11h-1.29c-2.33-7-5-8.84-9.36-8.84H574.14V65.28H583c2.78,0,3.74-2.19,4.39-6.07h1.74V73.48h-1.74c-.65-3.87-1.61-6.07-4.39-6.07h-8.91Z" transform="translate(-47.98 -36.75)"/><path d="M599.17,67.34c0-14.78,9.46-24.21,21.34-24.21,13.43,0,20.94,10.72,20.94,22.4,0,14.78-9.53,24.21-21.41,24.21-13.43,0-20.87-10.72-20.87-22.4m35.31-.91c0-10-4.56-21.17-14.5-21.17-9,0-13.9,9.62-13.9,21.17,0,10,4.57,21.18,14.5,21.18,9,0,13.89-9.62,13.89-21.18" transform="translate(-47.98 -36.75)"/><path d="M657.68,82.77c0,3.68.9,4,5.68,4.58V89.1H645.93V87.35c4.78-.58,5.68-.9,5.68-4.58V50.11c0-3.68-.91-4-5.68-4.58V43.78h17.3c11,0,16.4,5.16,16.4,12.33,0,7.55-6.59,11.3-11.43,12.2l10.59,13.62c3.1,4,5.23,5.36,8.84,5.42V89.1H678a24.64,24.64,0,0,1-5.36-5.75L662.13,69.28h-4.45Zm0-36.86V67.15h4.39c7.62,0,11-4.07,11-11,0-5.55-3.48-10.2-11.29-10.2Z" transform="translate(-47.98 -36.75)"/><path d="M692.11,43.78h8.63l26.53,34.54V50.24c0-3.68-1-4.2-6.33-4.71V43.78h14.53v1.74c-4.78.58-5.68,1-5.68,4.71V89.36h-1.61L699.06,51.85V82.64c0,3.68,1,4.2,6.33,4.71V89.1H690.86V87.35c4.77-.58,5.68-1,5.68-4.71V49.46" transform="translate(-47.98 -36.75)"/><path d="M751.49,82.77c0,3.68.91,4,5.68,4.58V89.1H739.74V87.35c4.78-.58,5.68-.9,5.68-4.58V50.11c0-3.68-.9-4-5.68-4.58V43.78h17.43l.39,1.78c-5,.4-6.07.87-6.07,4.55Z" transform="translate(-47.98 -36.75)"/><g class="cls-4"><g class="cls-5"><path d="M449.14,41.22c1,1.16,0,11,0,11H447c-1.77-8.52-8.44-13-16.62-13C418.24,39.26,412.14,50,412.14,63c0,14.25,6.74,25.72,18.86,25.72,8.51,0,13.64-4.37,16.05-15h2.41s.35,12.2-1,13.43c-2.66,2.33-10.11,4.07-17.42,4.07-16.61,0-27-10.78-27-26.09,0-17.27,11.24-28.35,26.4-28.35,6.9,0,16.77,2.14,18.78,4.45" transform="translate(-47.98 -36.75)"/></g></g><g class="cls-4"><g class="cls-6"><path d="M809.61,43.78h8.63l26.53,34.54V50.24c0-3.68-1-4.2-6.33-4.71V43.78H853v1.74c-4.78.58-5.68,1-5.68,4.71V89.36h-1.61L816.56,51.85V82.64c0,3.68,1,4.2,6.33,4.71V89.1H808.37V87.35c4.77-.58,5.68-1,5.68-4.71V49.46" transform="translate(-47.98 -36.75)"/></g></g><path d="M274.77,73.22h-18.4l-3.42,8.72a7.53,7.53,0,0,0-.65,2.58c0,2,1.48,2.71,5.87,2.84V89.1H245.46V87.35c1.81-.26,3.16-.64,3.81-2.39l14.85-37.51-1.81-4.26h6.46L285.94,85c.71,1.74,2.06,2.13,3.81,2.39V89.1H273.22V87.35c4.33-.13,5.81-.77,5.81-2.77a7.19,7.19,0,0,0-.65-2.58Zm-17.62-2.07h16.78l-8.52-21Z" transform="translate(-47.98 -36.75)"/><path d="M482.78,73.22h-18.4L461,81.93a7.51,7.51,0,0,0-.65,2.58c0,2,1.48,2.71,5.87,2.84V89.1H453.48V87.35c1.81-.26,3.16-.64,3.81-2.39l14.85-37.51-1.81-4.26h6.46L494,85c.71,1.74,2.07,2.13,3.81,2.39V89.1H481.23V87.35c4.32-.13,5.81-.77,5.81-2.77A7.25,7.25,0,0,0,486.4,82Zm-17.62-2.07h16.78l-8.52-21Z" transform="translate(-47.98 -36.75)"/><path d="M789.9,73.22H771.5l-3.42,8.72a7.49,7.49,0,0,0-.65,2.58c0,2,1.49,2.71,5.88,2.84V89.1H760.59V87.35c1.81-.26,3.16-.64,3.81-2.39l14.85-37.51-1.81-4.26h6.46L801.07,85c.71,1.74,2.06,2.13,3.81,2.39V89.1H788.35V87.35c4.33-.13,5.81-.77,5.81-2.77a7.17,7.17,0,0,0-.65-2.58Zm-17.62-2.07h16.78l-8.52-21Z" transform="translate(-47.98 -36.75)"/></g></g></g></g></svg>