<svg xmlns="http://www.w3.org/2000/svg" viewBox="0 0 171.02 198.8"><defs><style>.cls-1{fill:#231f20;}</style></defs><title>Asset 1</title><g id="Layer_2" data-name="Layer 2"><g id="Layer_1-2" data-name="Layer 1"><path class="cls-1" d="M78,7.24v184c0,9.65,15,9.67,15,0V7.24c0-9.65-15-9.67-15,0Z"/><path class="cls-1" d="M90.81,196.6l68.34-68.34,9.66-9.66c6.83-6.83-3.77-17.44-10.61-10.61L89.86,176.33,80.21,186c-6.83,6.83,3.77,17.44,10.61,10.61Z"/><path class="cls-1" d="M90.81,186,22.47,117.65,12.81,108C6,101.15-4.63,111.76,2.21,118.6l68.34,68.34,9.66,9.66C87,203.43,97.65,192.83,90.81,186Z"/></g></g></svg>