<svg xmlns="http://www.w3.org/2000/svg" viewBox="0 0 868.63 580.41"><defs><style>.cls-1{fill:#231f20;}</style></defs><title>Asset 2</title><g id="Layer_2" data-name="Layer 2"><g id="Layer_1-2" data-name="Layer 1"><path class="cls-1" d="M857.07,557.8H45.89c-10.93,0-22-.51-32.94,0-.46,0-.93,0-1.4,0l11.25,11.25V34.42c0-7.23.48-14.66,0-21.88,0-.31,0-.63,0-.94L11.56,22.85H822.74c10.93,0,22,.51,32.94,0,.46,0,.93,0,1.4,0L845.82,11.6V500.42c0,22.52-.7,45.18,0,67.69,0,.31,0,.63,0,.94,0,14.48,22.5,14.5,22.5,0V80.24c0-22.52.7-45.18,0-67.69,0-.31,0-.63,0-.94A11.41,11.41,0,0,0,857.07.35H45.89c-11,0-22-.24-32.94,0-.46,0-.93,0-1.4,0A11.41,11.41,0,0,0,.31,11.6V500.42c0,22.52-.7,45.18,0,67.69,0,.31,0,.63,0,.94A11.41,11.41,0,0,0,11.56,580.3H822.74c11,0,22,.24,32.94,0,.46,0,.93,0,1.4,0C871.55,580.3,871.57,557.8,857.07,557.8Z"/><path class="cls-1" d="M5.88,21.32,48,49.08l101.11,66.66L271,196.09l105.69,69.68c17,11.22,33.74,23.4,51.28,33.81.24.14.47.31.7.46,12.12,8,23.41-11.48,11.36-19.43l-42.11-27.77L296.77,186.19,174.91,105.84,69.22,36.16c-17-11.22-33.74-23.4-51.28-33.81-.24-.14-.47-.31-.7-.46C5.11-6.1-6.17,13.37,5.88,21.32Z"/><path class="cls-1" d="M440,300l42.11-27.77,101.11-66.66,121.86-80.34L810.77,55.59C827.85,44.33,845.19,33.37,862,21.78l.7-.46c12-7.94.78-27.43-11.36-19.43L809.28,29.66,708.17,96.32,586.31,176.66,480.62,246.34c-17.08,11.26-34.42,22.22-51.28,33.81l-.7.46c-12,7.94-.78,27.43,11.36,19.43Z"/></g></g></svg>