<svg xmlns="http://www.w3.org/2000/svg" viewBox="0 0 340.5 328.32"><defs><style>.cls-1{fill:#32363b;}</style></defs><title>Asset 1</title><g id="Layer_2" data-name="Layer 2"><g id="Layer_1-2" data-name="Layer 1"><path class="cls-1" d="M147.68,318.78h0c-.83,0-20.41-.15-35.57-13a15.08,15.08,0,0,0-3.45-2.34l-11.12-5.05v-130l15.87-13.57,42.43-78.62a21.36,21.36,0,0,0,3.1-12.83l-4-53L157.76,8a34.42,34.42,0,0,1,22-8C207.51,0,229,37,229,68.92a82.17,82.17,0,0,1-.94,12.36l-5,32.22h77.24a37.72,37.72,0,0,1,26.55,11.15,35,35,0,0,1,10.41,25,35.52,35.52,0,0,1-7.62,21.84,35.87,35.87,0,0,1-6.33,56.24,35.84,35.84,0,0,1-18.86,46.85,35.84,35.84,0,0,1-32.86,44.19h-.4ZM112,289l2.64,1.2a28.85,28.85,0,0,1,6.84,4.49c10.94,9.3,25.85,9.59,26.22,9.59l123.35,0a21.38,21.38,0,0,0,20-21.31,21.11,21.11,0,0,0-2.4-9.81l-4.59-8.82,9.81-1.64a21.33,21.33,0,0,0,13.53-33.93l-6.18-8.2,9.8-3.05a21.4,21.4,0,0,0,4.13-39.06L305.6,173l8.76-6.64a21.25,21.25,0,0,0,8.5-16.89,20.6,20.6,0,0,0-6.22-14.67A23.16,23.16,0,0,0,300.36,128h-94.1l7.54-48.87a67.75,67.75,0,0,0,.77-10.16c0-24.52-16.06-54.46-34.8-54.46a19.93,19.93,0,0,0-9.86,2.61l3.43,45.15a35.8,35.8,0,0,1-5.08,21.3L124.85,164,112,175Z"/><path class="cls-1" d="M97.13,328.32H14.86A14.88,14.88,0,0,1,0,313.46V158.29a14.88,14.88,0,0,1,14.86-14.86H97.13A14.88,14.88,0,0,1,112,158.29V313.46A14.88,14.88,0,0,1,97.13,328.32ZM14.86,157.89a.43.43,0,0,0-.4.4V313.46a.43.43,0,0,0,.4.4H97.13a.43.43,0,0,0,.4-.4V158.29a.43.43,0,0,0-.4-.4Z"/></g></g></svg>