<svg xmlns="http://www.w3.org/2000/svg" xmlns:xlink="http://www.w3.org/1999/xlink" viewBox="0 0 376.48 194.35"><defs><style>.cls-1{isolation:isolate;}.cls-2{font-size:14.04px;fill:#231f20;letter-spacing:0.1em;}.cls-15,.cls-2,.cls-7{font-family:BentonSans-Medium, BentonSans;}.cls-3{opacity:0.2;fill:url(#FMK_Gradients);}.cls-3,.cls-4,.cls-5,.cls-6{mix-blend-mode:lighten;}.cls-4,.cls-5,.cls-6{opacity:0.6;}.cls-4{fill:url(#FMK_Gradients-2);}.cls-5{fill:url(#FMK_Gradients-3);}.cls-6{fill:url(#FMK_Gradients-4);}.cls-7{font-size:12.51px;}.cls-21,.cls-7{fill:#5b5c5c;}.cls-12,.cls-7{letter-spacing:0.1em;}.cls-8{letter-spacing:0.09em;}.cls-9{letter-spacing:0.07em;}.cls-10{letter-spacing:0.02em;}.cls-11{letter-spacing:0.06em;}.cls-13{fill:#59595a;stroke:#9e9e9e;stroke-miterlimit:10;stroke-width:0.5px;}.cls-14{fill:#9e9e9e;}.cls-15{font-size:12px;}.cls-16{letter-spacing:0.08em;}.cls-17{letter-spacing:0.09em;}.cls-18{letter-spacing:0.1em;}.cls-19{letter-spacing:0.09em;}.cls-20{letter-spacing:0.1em;}.cls-21{font-family:BentonSans-Book, BentonSans;}.cls-22{letter-spacing:-0.03em;}.cls-23{letter-spacing:-0.03em;}.cls-24{letter-spacing:-0.03em;}.cls-25{letter-spacing:0.07em;}.cls-26{letter-spacing:0.07em;}.cls-27{letter-spacing:0.09em;}.cls-28{letter-spacing:0.08em;}</style><linearGradient id="FMK_Gradients" x1="-11.6" y1="174.26" x2="161.62" y2="74.25" gradientUnits="userSpaceOnUse"><stop offset="0" stop-color="#9fd7c9"/><stop offset="1" stop-color="#289ad6"/></linearGradient><linearGradient id="FMK_Gradients-2" x1="151.96" y1="98.92" x2="218.61" y2="60.44" xlink:href="#FMK_Gradients"/><linearGradient id="FMK_Gradients-3" x1="145.18" y1="176.32" x2="225.36" y2="130.03" xlink:href="#FMK_Gradients"/><linearGradient id="FMK_Gradients-4" x1="21.34" y1="86.14" x2="193.64" y2="-13.33" xlink:href="#FMK_Gradients"/></defs><title>Asset 2</title><g class="cls-1"><g id="Layer_2" data-name="Layer 2"><g id="Layer_1-2" data-name="Layer 1"><text class="cls-2" transform="translate(67.25 11.93)">ONLINE</text><polygon class="cls-3" points="150.11 194.35 150.11 54.31 0 54.12 0 194.35 150.11 194.35"/><polygon class="cls-4" points="215 105.22 215 54.19 155.59 54.12 155.59 105.22 215 105.22"/><polygon class="cls-5" points="215 194.35 215 112.09 155.59 111.98 155.59 194.35 215 194.35"/><polygon class="cls-6" points="215 49.18 215 23.66 0 23.62 0 49.18 215 49.18"/><text class="cls-7" transform="translate(30.34 125.54)">F<tspan class="cls-8" x="8.48" y="0">R</tspan><tspan x="18.25" y="0">ON</tspan><tspan class="cls-9" x="39.86" y="0">T</tspan><tspan x="48.68" y="0"> </tspan><tspan class="cls-10" x="53.07" y="0">P</tspan><tspan class="cls-11" x="61.61" y="0">A</tspan><tspan x="71.08" y="0">GE </tspan><tspan class="cls-8"><tspan x="10.57" y="15.01">C</tspan><tspan class="cls-12" x="20.67" y="15.01">ONTEN</tspan><tspan class="cls-9" x="71.28" y="15.01">T</tspan></tspan></text><line class="cls-13" x1="257.04" y1="39.81" x2="203.39" y2="39.81"/><circle class="cls-14" cx="204.07" cy="39.81" r="1.93"/><line class="cls-13" x1="255.48" y1="94.54" x2="201.82" y2="94.54"/><circle class="cls-14" cx="202.51" cy="94.54" r="1.92"/><line class="cls-13" x1="253.91" y1="149.27" x2="200.26" y2="149.27"/><circle class="cls-14" cx="200.94" cy="149.27" r="1.93"/><text class="cls-15" transform="translate(264.87 36.77)"><tspan class="cls-16">L<tspan class="cls-17" x="7.84" y="0">e</tspan><tspan class="cls-18" x="15.72" y="0">aderb</tspan><tspan class="cls-19" x="54.88" y="0">o</tspan><tspan class="cls-20" x="63.11" y="0">a</tspan><tspan x="71.09" y="0">r</tspan><tspan class="cls-20" x="76.93" y="0">d</tspan></tspan><tspan class="cls-21"><tspan class="cls-22" x="0" y="14">9</tspan><tspan class="cls-23" x="7.01" y="14">7</tspan><tspan x="13.28" y="14">0 x 90 </tspan><tspan class="cls-24" x="50.56" y="14">p</tspan><tspan x="57.26" y="14">x</tspan></tspan></text><text class="cls-15" transform="translate(264.87 91.5)"><tspan class="cls-20">Med<tspan class="cls-25" x="28.42" y="0">.</tspan><tspan x="32.57" y="0"> </tspan><tspan class="cls-26" x="36.78" y="0">R</tspan><tspan x="45.91" y="0">ectangle</tspan></tspan><tspan class="cls-21"><tspan x="0" y="14">300 x 250 </tspan><tspan class="cls-24" x="58.89" y="14">p</tspan><tspan x="65.6" y="14">x</tspan></tspan></text><text class="cls-15" transform="translate(264.87 146.23)"><tspan class="cls-20">Half <tspan class="cls-27" x="32.59" y="0">p</tspan><tspan x="41" y="0">a</tspan><tspan class="cls-28" x="48.98" y="0">g</tspan><tspan x="56.99" y="0">e</tspan></tspan><tspan class="cls-21"><tspan x="0" y="14">300 x 600 </tspan><tspan class="cls-24" x="60.04" y="14">p</tspan><tspan x="66.74" y="14">x</tspan></tspan></text></g></g></g></svg>